<?xml version="1.0" encoding="UTF-8"?>
<!DOCTYPE svg PUBLIC "-//W3C//DTD SVG 1.1//EN" "http://www.w3.org/Graphics/SVG/1.1/DTD/svg11.dtd">
<svg xmlns="http://www.w3.org/2000/svg" version="1.1" width="195px" height="175px" style="shape-rendering:geometricPrecision; text-rendering:geometricPrecision; image-rendering:optimizeQuality; fill-rule:evenodd; clip-rule:evenodd" xmlns:xlink="http://www.w3.org/1999/xlink">
<g><path style="opacity:0.85" fill="#fcf9f4" d="M 147.5,56.5 C 156.604,59.8213 165.604,63.6547 174.5,68C 183.857,75.7394 187.023,85.5727 184,97.5C 182.729,100.433 181.062,103.099 179,105.5C 178.749,107.433 178.249,109.266 177.5,111C 179.57,114.883 179.903,118.883 178.5,123C 182.821,123.499 187.154,123.666 191.5,123.5C 191.5,140.167 191.5,156.833 191.5,173.5C 129.167,173.5 66.8333,173.5 4.5,173.5C 4.5,156.833 4.5,140.167 4.5,123.5C 9.17853,123.666 13.8452,123.499 18.5,123C 16.5218,120.503 16.0218,117.669 17,114.5C 18.3988,113.773 19.8988,113.273 21.5,113C 18.9482,110.147 16.1149,107.647 13,105.5C 11.7852,100.949 11.1186,96.2824 11,91.5C 10.6258,90.5838 10.1258,89.7504 9.5,89C 6.905,88.7744 4.405,88.2744 2,87.5C 1.50335,85.1902 1.33669,82.8568 1.5,80.5C 2.83333,80.5 4.16667,80.5 5.5,80.5C 5.5,79.1667 5.5,77.8333 5.5,76.5C 3.5,76.5 1.5,76.5 -0.5,76.5C -0.5,73.5 -0.5,70.5 -0.5,67.5C 1.14056,64.3391 3.80722,62.6724 7.5,62.5C 11.7985,63.712 16.1318,64.712 20.5,65.5C 21.4853,61.6702 23.8187,58.8369 27.5,57C 33.1281,55.3356 38.7948,55.0023 44.5,56C 42.7771,51.211 41.7771,46.211 41.5,41C 42.7119,36.7361 43.7119,32.4028 44.5,28C 41.9475,24.945 41.9475,21.945 44.5,19C 45.448,18.5172 46.448,18.3505 47.5,18.5C 47.1043,15.9556 47.771,13.7889 49.5,12C 60.0855,8.18785 69.5855,10.0212 78,17.5C 78.4652,16.0692 79.2986,14.9025 80.5,14C 83.1013,13.0797 85.7679,12.413 88.5,12C 90.1558,10.1706 92.1558,8.83725 94.5,8C 99.1667,7.33333 103.833,7.33333 108.5,8C 121.227,10.3418 134.061,11.8418 147,12.5C 158.695,11.7976 170.195,10.2976 181.5,8C 182.576,9.72609 182.743,11.5594 182,13.5C 176.957,21.0808 171.124,27.9142 164.5,34C 163.5,34.3333 162.5,34.6667 161.5,35C 160.384,39.1161 157.718,41.4494 153.5,42C 152.167,43.6667 150.833,45.3333 149.5,47C 143.109,49.0746 136.776,51.2413 130.5,53.5C 129.196,55.0157 129.696,55.6824 132,55.5C 137.161,54.9227 142.327,55.256 147.5,56.5 Z M 162.5,72.5 C 173.915,75.6725 178.415,83.0058 176,94.5C 171.625,92.812 167.958,90.1453 165,86.5C 163.458,81.9555 162.624,77.2888 162.5,72.5 Z M 54.5,88.5 C 55.8734,88.3433 57.2068,88.51 58.5,89C 61.7348,92.4049 65.0681,95.5715 68.5,98.5C 70.1942,101.664 70.6942,104.998 70,108.5C 67.9307,109.264 65.764,109.764 63.5,110C 62.0126,112.485 60.1792,114.652 58,116.5C 57.2419,118.769 57.4086,120.936 58.5,123C 54.1667,123.667 49.8333,123.667 45.5,123C 47.4782,120.503 47.9782,117.669 47,114.5C 45.6012,113.773 44.1012,113.273 42.5,113C 46.0428,110.158 49.2095,106.991 52,103.5C 52.0116,98.2862 52.845,93.2862 54.5,88.5 Z M 139.5,93.5 C 145.171,96.6687 150.838,99.8354 156.5,103C 150.1,102.908 143.767,102.075 137.5,100.5C 136.386,99.277 136.219,97.9437 137,96.5C 138.045,95.6266 138.878,94.6266 139.5,93.5 Z M 94.5,98.5 C 98.1817,98.3347 101.848,98.5014 105.5,99C 101.848,101.145 100.182,104.311 100.5,108.5C 106.394,106.017 112.394,105.85 118.5,108C 114.9,111.327 110.567,112.994 105.5,113C 102.9,115.984 101.9,119.484 102.5,123.5C 96.8236,123.666 91.1569,123.499 85.5,123C 86.4558,119.606 86.7892,116.106 86.5,112.5C 87.675,112.719 88.675,112.386 89.5,111.5C 90.5341,108.557 92.0341,105.89 94,103.5C 94.4935,101.866 94.6602,100.199 94.5,98.5 Z M 136.5,108.5 C 145.141,109.516 153.808,110.349 162.5,111C 152.792,109.611 148.126,113.778 148.5,123.5C 142.5,123.5 136.5,123.5 130.5,123.5C 130.523,121.073 131.023,118.74 132,116.5C 134.157,114.183 135.657,111.516 136.5,108.5 Z M 31.5,119.5 C 35.987,123.073 35.3203,124.24 29.5,123C 30.8228,122.184 31.4894,121.017 31.5,119.5 Z"/></g>
<g><path style="opacity:1" fill="#fdefa2" d="M 103.5,14.5 C 100.709,16.7349 97.7089,18.7349 94.5,20.5C 96.3806,17.3484 98.0472,14.015 99.5,10.5C 100.5,11.8333 101.5,11.8333 102.5,10.5C 103.429,11.6888 103.762,13.0222 103.5,14.5 Z"/></g>
<g><path style="opacity:1" fill="#fcd689" d="M 174.5,17.5 C 174.5,15.5 173.5,14.5 171.5,14.5C 173.6,12.7273 175.934,12.394 178.5,13.5C 177.479,15.188 176.145,16.5213 174.5,17.5 Z"/></g>
<g><path style="opacity:1" fill="#f3a823" d="M 61.5,13.5 C 61.1667,14.8333 60.8333,16.1667 60.5,17.5C 59.1667,17.5 57.8333,17.5 56.5,17.5C 56.5,16.1667 56.5,14.8333 56.5,13.5C 57.1174,13.6107 57.6174,13.944 58,14.5C 58.8835,11.3469 60.0502,11.0135 61.5,13.5 Z"/></g>
<g><path style="opacity:1" fill="#fdf2b9" d="M 92.5,23.5 C 91.8333,24.8333 90.8333,25.8333 89.5,26.5C 89.6621,24.4727 89.4955,22.4727 89,20.5C 88.6667,21.1667 88.3333,21.8333 88,22.5C 87.5831,21.244 86.7498,20.5774 85.5,20.5C 85.8925,18.7162 86.5592,17.0495 87.5,15.5C 88.8068,14.8466 90.1401,14.1799 91.5,13.5C 91.9912,16.9733 92.3246,20.3066 92.5,23.5 Z"/></g>
<g><path style="opacity:1" fill="#fff8a8" d="M 61.5,13.5 C 63.099,13.2322 64.4324,13.5655 65.5,14.5C 63.2475,14.9156 61.7475,16.249 61,18.5C 60.6012,18.2716 60.4346,17.9382 60.5,17.5C 60.8333,16.1667 61.1667,14.8333 61.5,13.5 Z"/></g>
<g><path style="opacity:1" fill="#fff4a6" d="M 66.5,15.5 C 66.5,15.1667 66.5,14.8333 66.5,14.5C 68.5529,14.4021 70.2196,15.0687 71.5,16.5C 70.8166,18.1765 69.4832,18.8432 67.5,18.5C 67.7373,17.209 67.404,16.209 66.5,15.5 Z"/></g>
<g><path style="opacity:1" fill="#893d05" d="M 56.5,13.5 C 56.5,14.8333 56.5,16.1667 56.5,17.5C 57.8333,17.5 59.1667,17.5 60.5,17.5C 60.4346,17.9382 60.6012,18.2716 61,18.5C 61.7475,16.249 63.2475,14.9156 65.5,14.5C 65.8333,14.5 66.1667,14.5 66.5,14.5C 66.5,14.8333 66.5,15.1667 66.5,15.5C 66.5,16.5 66.5,17.5 66.5,18.5C 65.8333,19.1667 65.1667,19.8333 64.5,20.5C 61.2932,21.5232 58.6265,21.5232 56.5,20.5C 55.391,20.4431 54.391,20.1098 53.5,19.5C 52.3398,17.7973 53.0065,17.1307 55.5,17.5C 55.5,16.5 55.5,15.5 55.5,14.5C 55.5,13.8333 55.8333,13.5 56.5,13.5 Z"/></g>
<g><path style="opacity:1" fill="#fbca4a" d="M 66.5,15.5 C 67.404,16.209 67.7373,17.209 67.5,18.5C 69.4832,18.8432 70.8166,18.1765 71.5,16.5C 73.7488,17.0798 75.4154,18.4131 76.5,20.5C 75.5084,20.3284 74.8417,20.6618 74.5,21.5C 72.2737,19.0778 69.9404,19.0778 67.5,21.5C 66.8902,20.609 66.5569,19.609 66.5,18.5C 66.5,17.5 66.5,16.5 66.5,15.5 Z"/></g>
<g><path style="opacity:1" fill="#ef9618" d="M 121.5,14.5 C 121.918,15.2216 122.584,15.7216 123.5,16C 122.833,16.3333 122.167,16.6667 121.5,17C 122.842,24.1866 123.842,24.0199 124.5,16.5C 126.199,16.3398 127.866,16.5065 129.5,17C 127.44,18.4926 127.107,20.3259 128.5,22.5C 129.281,21.2634 130.281,20.2634 131.5,19.5C 133.861,20.021 136.194,20.3543 138.5,20.5C 139.682,18.3546 141.182,18.3546 143,20.5C 145.536,17.304 147.036,17.304 147.5,20.5C 149.745,18.6386 152.412,17.6386 155.5,17.5C 160.708,15.9921 166.041,14.9921 171.5,14.5C 173.5,14.5 174.5,15.5 174.5,17.5C 174.167,17.5 173.833,17.5 173.5,17.5C 160.793,20.9764 147.793,22.8097 134.5,23C 133.263,23.2321 132.263,23.7321 131.5,24.5C 129.585,24.2155 127.919,24.5489 126.5,25.5C 122.509,24.872 121.176,26.2053 122.5,29.5C 122.5,30.1667 122.5,30.8333 122.5,31.5C 122.167,31.5 121.833,31.5 121.5,31.5C 121.322,27.8979 120.322,27.8979 118.5,31.5C 116.833,30.3333 115.167,29.1667 113.5,28C 116.116,26.2907 117.116,24.124 116.5,21.5C 114.838,24.8235 112.505,27.4902 109.5,29.5C 109.361,31.337 108.694,31.6704 107.5,30.5C 109.408,27.9771 109.741,25.3104 108.5,22.5C 107.501,25.1608 106.501,27.8275 105.5,30.5C 106.986,32.3016 107.986,34.3016 108.5,36.5C 106.446,36.6347 104.779,35.968 103.5,34.5C 102.564,33.0256 101.23,32.0256 99.5,31.5C 99.9371,29.9256 100.937,28.7589 102.5,28C 100.546,28.4531 98.7125,28.6198 97,28.5C 96.3333,27.5 96.3333,26.5 97,25.5C 99.6667,23.5 102,21.1667 104,18.5C 104.317,20.3008 104.984,20.6341 106,19.5C 106.494,17.8659 106.66,16.1992 106.5,14.5C 111.5,14.5 116.5,14.5 121.5,14.5 Z"/></g>
<g><path style="opacity:1" fill="#fdd871" d="M 121.5,14.5 C 133.838,14.3335 146.171,14.5001 158.5,15C 157.167,15.3333 155.833,15.6667 154.5,16C 155.056,16.3826 155.389,16.8826 155.5,17.5C 152.412,17.6386 149.745,18.6386 147.5,20.5C 147.036,17.304 145.536,17.304 143,20.5C 141.182,18.3546 139.682,18.3546 138.5,20.5C 136.194,20.3543 133.861,20.021 131.5,19.5C 130.281,20.2634 129.281,21.2634 128.5,22.5C 127.107,20.3259 127.44,18.4926 129.5,17C 127.866,16.5065 126.199,16.3398 124.5,16.5C 123.842,24.0199 122.842,24.1866 121.5,17C 122.167,16.6667 122.833,16.3333 123.5,16C 122.584,15.7216 121.918,15.2216 121.5,14.5 Z"/></g>
<g><path style="opacity:1" fill="#fbe79e" d="M 74.5,21.5 C 74.5,21.8333 74.5,22.1667 74.5,22.5C 73.8333,22.5 73.1667,22.5 72.5,22.5C 71.0695,22.4208 69.7362,22.7542 68.5,23.5C 67.7025,23.0431 67.3691,22.3764 67.5,21.5C 69.9404,19.0778 72.2737,19.0778 74.5,21.5 Z"/></g>
<g><path style="opacity:1" fill="#fad491" d="M 173.5,17.5 C 174.773,20.2713 173.773,21.938 170.5,22.5C 169.844,21.7222 169.011,21.0556 168,20.5C 164.855,21.4113 161.688,22.2446 158.5,23C 157.354,23.6449 156.354,24.4783 155.5,25.5C 152.775,23.5714 149.775,23.0714 146.5,24C 147.604,25.1313 147.271,25.9646 145.5,26.5C 144.106,24.016 142.606,24.016 141,26.5C 139.739,26.2409 138.739,25.5742 138,24.5C 137.323,26.689 136.156,27.0224 134.5,25.5C 133.378,26.6302 132.044,27.2969 130.5,27.5C 130.953,26.5416 131.619,25.7083 132.5,25C 132.272,24.6012 131.938,24.4346 131.5,24.5C 132.263,23.7321 133.263,23.2321 134.5,23C 147.793,22.8097 160.793,20.9764 173.5,17.5 Z"/></g>
<g><path style="opacity:1" fill="#d78b22" d="M 55.5,14.5 C 55.5,15.5 55.5,16.5 55.5,17.5C 53.0065,17.1307 52.3398,17.7973 53.5,19.5C 49.4724,22.9836 50.4724,24.6502 56.5,24.5C 56.5,23.1667 56.5,21.8333 56.5,20.5C 58.6265,21.5232 61.2932,21.5232 64.5,20.5C 65.8333,21.8333 65.8333,23.1667 64.5,24.5C 62.8008,24.3398 61.1341,24.5065 59.5,25C 58.2264,25.9772 58.2264,26.8106 59.5,27.5C 58.1667,28.5 58.1667,29.5 59.5,30.5C 58.596,31.209 58.2627,32.209 58.5,33.5C 57.6981,32.0484 57.1981,30.3817 57,28.5C 56.79,30.0581 56.29,31.3915 55.5,32.5C 55.5,31.5 55.5,30.5 55.5,29.5C 55.5,28.8333 55.5,28.1667 55.5,27.5C 53.5,27.5 51.5,27.5 49.5,27.5C 49.5,28.5 49.5,29.5 49.5,30.5C 49.238,31.9778 49.5713,33.3112 50.5,34.5C 51.6199,33.1666 52.9532,32.6666 54.5,33C 52.9825,34.6851 51.3159,36.1851 49.5,37.5C 50.1717,39.5295 50.8384,41.5295 51.5,43.5C 50.4205,43.4363 49.4205,43.9363 48.5,45C 47.3047,46.5325 47.3047,48.0325 48.5,49.5C 48.0576,50.7387 47.3909,51.7387 46.5,52.5C 45.5489,51.0813 45.2155,49.4147 45.5,47.5C 47.0352,44.3847 47.8685,41.0514 48,37.5C 46.9702,39.3464 45.8036,41.0131 44.5,42.5C 45.4624,37.5513 46.7957,32.718 48.5,28C 44.2152,24.3861 44.7152,21.5528 50,19.5C 50.2022,17.7444 50.7022,16.0777 51.5,14.5C 52.865,13.1931 54.1984,13.1931 55.5,14.5 Z"/></g>
<g><path style="opacity:1" fill="#fed75b" d="M 53.5,19.5 C 54.391,20.1098 55.391,20.4431 56.5,20.5C 56.5,21.8333 56.5,23.1667 56.5,24.5C 50.4724,24.6502 49.4724,22.9836 53.5,19.5 Z"/></g>
<g><path style="opacity:1" fill="#fbe2a3" d="M 64.5,24.5 C 62.9236,25.1429 61.5903,26.1429 60.5,27.5C 60.1667,27.5 59.8333,27.5 59.5,27.5C 58.2264,26.8106 58.2264,25.9772 59.5,25C 61.1341,24.5065 62.8008,24.3398 64.5,24.5 Z"/></g>
<g><path style="opacity:1" fill="#faf5e9" d="M 55.5,27.5 C 55.6395,25.663 56.3061,25.3296 57.5,26.5C 57.0431,27.2975 56.3764,27.6309 55.5,27.5 Z"/></g>
<g><path style="opacity:1" fill="#df9319" d="M 85.5,15.5 C 83.0938,19.4464 81.7605,23.7798 81.5,28.5C 80.5,28.5 79.5,28.5 78.5,28.5C 78.1201,30.698 78.7868,32.3646 80.5,33.5C 81.4552,35.7457 82.1218,38.079 82.5,40.5C 81.6043,39.4937 80.9377,39.4937 80.5,40.5C 80.3424,37.8026 79.1757,35.1359 77,32.5C 76.7468,29.7996 76.7468,27.133 77,24.5C 76.2917,23.6195 75.4584,22.9528 74.5,22.5C 74.5,22.1667 74.5,21.8333 74.5,21.5C 74.8417,20.6618 75.5084,20.3284 76.5,20.5C 77.1174,20.6107 77.6174,20.944 78,21.5C 79.4807,18.1833 81.9807,16.1833 85.5,15.5 Z"/></g>
<g><path style="opacity:1" fill="#c37111" d="M 85.5,15.5 C 86.1667,15.5 86.8333,15.5 87.5,15.5C 86.5592,17.0495 85.8925,18.7162 85.5,20.5C 83.8372,22.4385 83.1706,24.7718 83.5,27.5C 85.6208,27.6747 87.6208,27.3414 89.5,26.5C 91.3178,31.4331 92.9845,36.4331 94.5,41.5C 94.2811,42.938 93.7811,44.2713 93,45.5C 92.2269,42.7886 91.0602,40.2886 89.5,38C 90.1667,37.3333 90.8333,36.6667 91.5,36C 90.3252,32.3259 87.8252,30.1593 84,29.5C 83.1667,29.8333 82.3333,30.1667 81.5,30.5C 83.1035,33.1248 82.7702,34.1248 80.5,33.5C 78.7868,32.3646 78.1201,30.698 78.5,28.5C 79.5,28.5 80.5,28.5 81.5,28.5C 81.7605,23.7798 83.0938,19.4464 85.5,15.5 Z"/></g>
<g><path style="opacity:1" fill="#fbf3e1" d="M 85.5,20.5 C 86.7498,20.5774 87.5831,21.244 88,22.5C 88.3333,21.8333 88.6667,21.1667 89,20.5C 89.4955,22.4727 89.6621,24.4727 89.5,26.5C 87.6208,27.3414 85.6208,27.6747 83.5,27.5C 83.1706,24.7718 83.8372,22.4385 85.5,20.5 Z"/></g>
<g><path style="opacity:1" fill="#773a09" d="M 126.5,25.5 C 127.009,26.3413 126.343,26.8413 124.5,27C 126.167,27.3333 127.833,27.6667 129.5,28C 127.406,29.3515 125.073,29.8515 122.5,29.5C 121.176,26.2053 122.509,24.872 126.5,25.5 Z"/></g>
<g><path style="opacity:1" fill="#672605" d="M 55.5,27.5 C 55.5,28.1667 55.5,28.8333 55.5,29.5C 53.8311,31.6618 51.8311,31.9952 49.5,30.5C 49.5,29.5 49.5,28.5 49.5,27.5C 51.5,27.5 53.5,27.5 55.5,27.5 Z"/></g>
<g><path style="opacity:1" fill="#b25801" d="M 103.5,14.5 C 104.5,14.5 105.5,14.5 106.5,14.5C 106.66,16.1992 106.494,17.8659 106,19.5C 104.984,20.6341 104.317,20.3008 104,18.5C 102,21.1667 99.6667,23.5 97,25.5C 96.3333,26.5 96.3333,27.5 97,28.5C 98.7125,28.6198 100.546,28.4531 102.5,28C 100.937,28.7589 99.9371,29.9256 99.5,31.5C 98.5,31.5 97.5,31.5 96.5,31.5C 95.8333,30.8333 95.1667,30.1667 94.5,29.5C 95.8333,26.8333 95.8333,24.1667 94.5,21.5C 94.5,21.1667 94.5,20.8333 94.5,20.5C 97.7089,18.7349 100.709,16.7349 103.5,14.5 Z"/></g>
<g><path style="opacity:1" fill="#f09919" d="M 170.5,22.5 C 169.606,25.5489 167.606,27.5489 164.5,28.5C 163.739,27.6091 162.739,26.9424 161.5,26.5C 156.554,27.8802 151.554,29.0469 146.5,30C 145.333,30.5 144.5,31.3333 144,32.5C 140.669,29.9451 137.335,29.9451 134,32.5C 131.46,31.7935 130.293,30.1268 130.5,27.5C 132.044,27.2969 133.378,26.6302 134.5,25.5C 136.156,27.0224 137.323,26.689 138,24.5C 138.739,25.5742 139.739,26.2409 141,26.5C 142.606,24.016 144.106,24.016 145.5,26.5C 147.271,25.9646 147.604,25.1313 146.5,24C 149.775,23.0714 152.775,23.5714 155.5,25.5C 156.354,24.4783 157.354,23.6449 158.5,23C 161.688,22.2446 164.855,21.4113 168,20.5C 169.011,21.0556 169.844,21.7222 170.5,22.5 Z"/></g>
<g><path style="opacity:1" fill="#762f06" d="M 59.5,27.5 C 59.8333,27.5 60.1667,27.5 60.5,27.5C 63.3878,26.9898 65.7211,27.6565 67.5,29.5C 64.8832,31.4337 62.2165,31.767 59.5,30.5C 58.1667,29.5 58.1667,28.5 59.5,27.5 Z"/></g>
<g><path style="opacity:1" fill="#bd6b06" d="M 66.5,18.5 C 66.5569,19.609 66.8902,20.609 67.5,21.5C 67.3691,22.3764 67.7025,23.0431 68.5,23.5C 69.7362,22.7542 71.0695,22.4208 72.5,22.5C 71.158,23.793 69.4913,24.6264 67.5,25C 68.0253,25.6924 68.6919,26.1924 69.5,26.5C 71.1913,24.7438 73.1913,24.2438 75.5,25C 74.2842,26.7398 72.6175,27.7398 70.5,28C 72.4178,30.1088 72.7512,32.2754 71.5,34.5C 70.6136,33.2241 69.6136,33.2241 68.5,34.5C 69.1272,35.4168 69.4606,36.4168 69.5,37.5C 68.8333,37.5 68.1667,37.5 67.5,37.5C 67.5,35.5 67.5,33.5 67.5,31.5C 68.5063,30.6043 68.5063,29.9377 67.5,29.5C 65.7211,27.6565 63.3878,26.9898 60.5,27.5C 61.5903,26.1429 62.9236,25.1429 64.5,24.5C 65.8333,23.1667 65.8333,21.8333 64.5,20.5C 65.1667,19.8333 65.8333,19.1667 66.5,18.5 Z"/></g>
<g><path style="opacity:1" fill="#d47c04" d="M 126.5,25.5 C 127.919,24.5489 129.585,24.2155 131.5,24.5C 131.938,24.4346 132.272,24.6012 132.5,25C 131.619,25.7083 130.953,26.5416 130.5,27.5C 130.293,30.1268 131.46,31.7935 134,32.5C 137.335,29.9451 140.669,29.9451 144,32.5C 144.5,31.3333 145.333,30.5 146.5,30C 151.554,29.0469 156.554,27.8802 161.5,26.5C 162.739,26.9424 163.739,27.6091 164.5,28.5C 161.258,31.0108 158.592,34.1775 156.5,38C 155.552,38.4828 154.552,38.6495 153.5,38.5C 153.265,37.9033 152.765,37.5699 152,37.5C 146.271,39.1286 140.438,40.2953 134.5,41C 132.93,42.6783 131.263,44.1783 129.5,45.5C 128.127,45.6567 126.793,45.49 125.5,45C 126.094,44.5357 126.761,44.369 127.5,44.5C 129.986,43.5384 129.986,42.7051 127.5,42C 132.788,40.0848 132.788,39.4181 127.5,40C 128.13,38.108 129.13,36.4413 130.5,35C 127.899,34.0797 125.232,33.413 122.5,33C 131.783,30.8595 131.783,30.3595 122.5,31.5C 122.5,30.8333 122.5,30.1667 122.5,29.5C 125.073,29.8515 127.406,29.3515 129.5,28C 127.833,27.6667 126.167,27.3333 124.5,27C 126.343,26.8413 127.009,26.3413 126.5,25.5 Z"/></g>
<g><path style="opacity:1" fill="#d9861a" d="M 109.5,29.5 C 113.182,29.5907 116.349,30.924 119,33.5C 119.708,32.6195 120.542,31.9528 121.5,31.5C 120.89,33.4341 119.89,35.1007 118.5,36.5C 118.607,34.6214 118.107,34.2881 117,35.5C 116.333,36.5 116.333,37.5 117,38.5C 118.972,39.3052 120.472,40.6385 121.5,42.5C 120.743,44.4041 119.743,44.7375 118.5,43.5C 119.525,43.1034 119.692,42.4368 119,41.5C 117.333,40.5 115.667,39.5 114,38.5C 113.217,36.5665 113.717,35.0665 115.5,34C 113.471,33.3189 111.471,32.9856 109.5,33C 113.327,35.9053 113.327,38.9053 109.5,42C 111.886,43.8873 113.053,46.3873 113,49.5C 113.9,48.2298 115.066,47.2298 116.5,46.5C 115.873,45.5832 115.539,44.5832 115.5,43.5C 118.927,45.0127 119.261,47.0127 116.5,49.5C 117.355,50.293 118.189,49.9597 119,48.5C 119.483,49.448 119.649,50.448 119.5,51.5C 118.833,51.5 118.5,51.8333 118.5,52.5C 114.238,50.7844 113.571,51.6177 116.5,55C 116.112,56.9514 115.112,58.4514 113.5,59.5C 112.334,57.6351 112.667,55.9684 114.5,54.5C 111.913,51.7692 109.247,49.9358 106.5,49C 106.905,48.0546 107.572,47.3879 108.5,47C 102.991,44.963 100.991,41.1297 102.5,35.5C 103.167,35.5 103.5,35.1667 103.5,34.5C 104.779,35.968 106.446,36.6347 108.5,36.5C 107.986,34.3016 106.986,32.3016 105.5,30.5C 106.501,27.8275 107.501,25.1608 108.5,22.5C 109.741,25.3104 109.408,27.9771 107.5,30.5C 108.694,31.6704 109.361,31.337 109.5,29.5 Z"/></g>
<g><path style="opacity:1" fill="#864010" d="M 121.5,31.5 C 120.542,31.9528 119.708,32.6195 119,33.5C 116.349,30.924 113.182,29.5907 109.5,29.5C 112.505,27.4902 114.838,24.8235 116.5,21.5C 117.116,24.124 116.116,26.2907 113.5,28C 115.167,29.1667 116.833,30.3333 118.5,31.5C 120.322,27.8979 121.322,27.8979 121.5,31.5 Z"/></g>
<g><path style="opacity:1" fill="#fee97e" d="M 67.5,29.5 C 68.5063,29.9377 68.5063,30.6043 67.5,31.5C 65.6308,33.5757 63.4641,33.9091 61,32.5C 60.6666,34.0468 61.1666,35.3801 62.5,36.5C 62.0431,37.2975 61.3764,37.6309 60.5,37.5C 59.1938,36.5326 58.5271,35.1993 58.5,33.5C 58.2627,32.209 58.596,31.209 59.5,30.5C 62.2165,31.767 64.8832,31.4337 67.5,29.5 Z"/></g>
<g><path style="opacity:1" fill="#8b3c02" d="M 72.5,22.5 C 73.1667,22.5 73.8333,22.5 74.5,22.5C 75.4584,22.9528 76.2917,23.6195 77,24.5C 76.7468,27.133 76.7468,29.7996 77,32.5C 79.1757,35.1359 80.3424,37.8026 80.5,40.5C 80.5,43.1667 80.5,45.8333 80.5,48.5C 79.8333,49.1667 79.1667,49.8333 78.5,50.5C 78.6655,46.4862 78.4988,42.4862 78,38.5C 77.1999,34.613 75.5332,33.9463 73,36.5C 71.9701,36.1639 71.4701,35.4972 71.5,34.5C 72.7512,32.2754 72.4178,30.1088 70.5,28C 72.6175,27.7398 74.2842,26.7398 75.5,25C 73.1913,24.2438 71.1913,24.7438 69.5,26.5C 68.6919,26.1924 68.0253,25.6924 67.5,25C 69.4913,24.6264 71.158,23.793 72.5,22.5 Z"/></g>
<g><path style="opacity:1" fill="#f7db6a" d="M 96.5,31.5 C 97.5,31.5 98.5,31.5 99.5,31.5C 101.23,32.0256 102.564,33.0256 103.5,34.5C 103.5,35.1667 103.167,35.5 102.5,35.5C 102.389,34.8826 102.056,34.3826 101.5,34C 99.1667,33.6667 96.8333,33.3333 94.5,33C 95.0442,32.2828 95.7109,31.7828 96.5,31.5 Z"/></g>
<g><path style="opacity:1" fill="#db840d" d="M 94.5,29.5 C 95.1667,30.1667 95.8333,30.8333 96.5,31.5C 95.7109,31.7828 95.0442,32.2828 94.5,33C 96.8333,33.3333 99.1667,33.6667 101.5,34C 102.056,34.3826 102.389,34.8826 102.5,35.5C 100.518,35.9954 98.5183,36.4954 96.5,37C 99.6124,37.8505 99.9458,39.0172 97.5,40.5C 98.2739,41.7112 99.1072,41.7112 100,40.5C 100.492,41.549 100.326,42.549 99.5,43.5C 100.63,44.6223 101.297,45.9557 101.5,47.5C 101.676,50.4476 101.676,53.1143 101.5,55.5C 100.522,55.0233 99.6891,54.3567 99,53.5C 98.7599,51.1484 97.9265,49.1484 96.5,47.5C 96.5,46.8333 96.5,46.1667 96.5,45.5C 96.5,44.8333 96.5,44.1667 96.5,43.5C 94.5282,38.2845 92.8615,32.9511 91.5,27.5C 93.3957,26.3606 94.3957,27.0272 94.5,29.5 Z"/></g>
<g><path style="opacity:1" fill="#b05e0f" d="M 58.5,33.5 C 58.5271,35.1993 59.1938,36.5326 60.5,37.5C 57.7026,38.8082 57.8692,39.4749 61,39.5C 63.151,39.3569 64.8176,38.3569 66,36.5C 65.9031,38.4585 65.0698,40.1252 63.5,41.5C 62.0813,40.5489 60.4147,40.2155 58.5,40.5C 56.0876,40.756 54.4209,39.756 53.5,37.5C 54.4565,35.9246 55.1231,34.258 55.5,32.5C 56.29,31.3915 56.79,30.0581 57,28.5C 57.1981,30.3817 57.6981,32.0484 58.5,33.5 Z"/></g>
<g><path style="opacity:1" fill="#a15d0b" d="M 127.5,44.5 C 126.328,43.2947 124.995,43.2947 123.5,44.5C 123.167,44.1667 122.833,43.8333 122.5,43.5C 126.361,42.4024 126.361,41.5691 122.5,41C 120.808,39.6927 119.475,38.1927 118.5,36.5C 119.89,35.1007 120.89,33.4341 121.5,31.5C 121.833,31.5 122.167,31.5 122.5,31.5C 131.783,30.3595 131.783,30.8595 122.5,33C 125.232,33.413 127.899,34.0797 130.5,35C 129.13,36.4413 128.13,38.108 127.5,40C 132.788,39.4181 132.788,40.0848 127.5,42C 129.986,42.7051 129.986,43.5384 127.5,44.5 Z"/></g>
<g><path style="opacity:1" fill="#f5c348" d="M 55.5,29.5 C 55.5,30.5 55.5,31.5 55.5,32.5C 55.1231,34.258 54.4565,35.9246 53.5,37.5C 54.4209,39.756 56.0876,40.756 58.5,40.5C 58.9175,41.2216 59.5842,41.7216 60.5,42C 58.9651,42.4962 57.4651,42.3295 56,41.5C 54.699,41.6387 53.8656,42.3054 53.5,43.5C 52.8333,43.5 52.1667,43.5 51.5,43.5C 50.8384,41.5295 50.1717,39.5295 49.5,37.5C 51.3159,36.1851 52.9825,34.6851 54.5,33C 52.9532,32.6666 51.6199,33.1666 50.5,34.5C 49.5713,33.3112 49.238,31.9778 49.5,30.5C 51.8311,31.9952 53.8311,31.6618 55.5,29.5 Z"/></g>
<g><path style="opacity:1" fill="#b96b0e" d="M 153.5,38.5 C 151.359,39.8118 149.692,41.6451 148.5,44C 142.319,46.4623 135.986,48.4623 129.5,50C 128.132,51.3402 126.799,52.6736 125.5,54C 125.989,55.5637 126.322,57.0637 126.5,58.5C 123.167,59.1667 119.833,59.8333 116.5,60.5C 117.64,57.9752 118.307,55.3085 118.5,52.5C 118.5,51.8333 118.833,51.5 119.5,51.5C 122.134,53.54 122.134,55.7067 119.5,58C 121.568,57.9827 123.234,56.9827 124.5,55C 123.167,54 123.167,53 124.5,52C 121.951,51.2486 120.284,49.582 119.5,47C 121.047,46.6666 122.38,47.1666 123.5,48.5C 125.78,47.8641 127.78,46.8641 129.5,45.5C 131.263,44.1783 132.93,42.6783 134.5,41C 140.438,40.2953 146.271,39.1286 152,37.5C 152.765,37.5699 153.265,37.9033 153.5,38.5 Z"/></g>
<g><path style="opacity:1" fill="#8c3702" d="M 45.5,47.5 C 45.634,45.7085 45.3007,44.0418 44.5,42.5C 45.8036,41.0131 46.9702,39.3464 48,37.5C 47.8685,41.0514 47.0352,44.3847 45.5,47.5 Z"/></g>
<g><path style="opacity:1" fill="#fff295" d="M 74.5,45.5 C 73.5798,46.0674 73.2465,45.4008 73.5,43.5C 72.7691,41.4012 72.7691,39.4012 73.5,37.5C 74.48,40.0865 74.8134,42.7531 74.5,45.5 Z"/></g>
<g><path style="opacity:1" fill="#73390e" d="M 118.5,36.5 C 119.475,38.1927 120.808,39.6927 122.5,41C 126.361,41.5691 126.361,42.4024 122.5,43.5C 122.833,43.8333 123.167,44.1667 123.5,44.5C 124.995,43.2947 126.328,43.2947 127.5,44.5C 126.761,44.369 126.094,44.5357 125.5,45C 126.793,45.49 128.127,45.6567 129.5,45.5C 127.78,46.8641 125.78,47.8641 123.5,48.5C 122.38,47.1666 121.047,46.6666 119.5,47C 120.284,49.582 121.951,51.2486 124.5,52C 123.167,53 123.167,54 124.5,55C 123.234,56.9827 121.568,57.9827 119.5,58C 122.134,55.7067 122.134,53.54 119.5,51.5C 119.649,50.448 119.483,49.448 119,48.5C 118.189,49.9597 117.355,50.293 116.5,49.5C 119.261,47.0127 118.927,45.0127 115.5,43.5C 116.348,42.375 117.348,42.375 118.5,43.5C 119.743,44.7375 120.743,44.4041 121.5,42.5C 120.472,40.6385 118.972,39.3052 117,38.5C 116.333,37.5 116.333,36.5 117,35.5C 118.107,34.2881 118.607,34.6214 118.5,36.5 Z"/></g>
<g><path style="opacity:1" fill="#783c11" d="M 58.5,40.5 C 60.4147,40.2155 62.0813,40.5489 63.5,41.5C 63.5394,42.5832 63.8728,43.5832 64.5,44.5C 63.5754,45.5624 62.5754,45.5624 61.5,44.5C 58.9039,43.7347 56.2372,43.4013 53.5,43.5C 53.8656,42.3054 54.699,41.6387 56,41.5C 57.4651,42.3295 58.9651,42.4962 60.5,42C 59.5842,41.7216 58.9175,41.2216 58.5,40.5 Z"/></g>
<g><path style="opacity:1" fill="#833705" d="M 65.5,48.5 C 64.2223,48.7822 63.2223,49.4489 62.5,50.5C 61.0272,47.7526 58.6939,46.9193 55.5,48C 56.056,48.3826 56.3893,48.8826 56.5,49.5C 55.5,49.5 54.5,49.5 53.5,49.5C 53.4326,50.9587 53.7659,52.2921 54.5,53.5C 53.1529,54.1712 51.9862,54.1712 51,53.5C 50.4054,54.8989 50.5721,56.2322 51.5,57.5C 51.0431,58.2975 50.3764,58.6309 49.5,58.5C 47.461,57.089 46.461,55.089 46.5,52.5C 47.3909,51.7387 48.0576,50.7387 48.5,49.5C 47.3047,48.0325 47.3047,46.5325 48.5,45C 49.4205,43.9363 50.4205,43.4363 51.5,43.5C 52.1667,43.5 52.8333,43.5 53.5,43.5C 55.2789,45.3435 57.6122,46.0102 60.5,45.5C 65.5966,48.7436 67.2632,47.4103 65.5,41.5C 66.4959,41.4142 67.3292,41.7476 68,42.5C 68.6988,37.7193 69.1988,37.5526 69.5,42C 69.0541,45.1751 68.5541,48.3418 68,51.5C 67.7645,49.8807 66.9311,48.8807 65.5,48.5 Z"/></g>
<g><path style="opacity:1" fill="#b86611" d="M 118.5,43.5 C 117.348,42.375 116.348,42.375 115.5,43.5C 115.539,44.5832 115.873,45.5832 116.5,46.5C 115.066,47.2298 113.9,48.2298 113,49.5C 113.053,46.3873 111.886,43.8873 109.5,42C 113.327,38.9053 113.327,35.9053 109.5,33C 111.471,32.9856 113.471,33.3189 115.5,34C 113.717,35.0665 113.217,36.5665 114,38.5C 115.667,39.5 117.333,40.5 119,41.5C 119.692,42.4368 119.525,43.1034 118.5,43.5 Z"/></g>
<g><path style="opacity:1" fill="#fee77a" d="M 53.5,43.5 C 56.2372,43.4013 58.9039,43.7347 61.5,44.5C 61.5,45.1667 61.1667,45.5 60.5,45.5C 57.6122,46.0102 55.2789,45.3435 53.5,43.5 Z"/></g>
<g><path style="opacity:1" fill="#f09d17" d="M 67.5,31.5 C 67.5,33.5 67.5,35.5 67.5,37.5C 67.2671,39.0618 66.6005,40.3951 65.5,41.5C 67.2632,47.4103 65.5966,48.7436 60.5,45.5C 61.1667,45.5 61.5,45.1667 61.5,44.5C 62.5754,45.5624 63.5754,45.5624 64.5,44.5C 63.8728,43.5832 63.5394,42.5832 63.5,41.5C 65.0698,40.1252 65.9031,38.4585 66,36.5C 64.8176,38.3569 63.151,39.3569 61,39.5C 57.8692,39.4749 57.7026,38.8082 60.5,37.5C 61.3764,37.6309 62.0431,37.2975 62.5,36.5C 61.1666,35.3801 60.6666,34.0468 61,32.5C 63.4641,33.9091 65.6308,33.5757 67.5,31.5 Z"/></g>
<g><path style="opacity:1" fill="#fde686" d="M 82.5,40.5 C 82.5,42.8333 82.5,45.1667 82.5,47.5C 81.7784,47.9175 81.2784,48.5842 81,49.5C 80.6012,49.2716 80.4346,48.9382 80.5,48.5C 80.5,45.8333 80.5,43.1667 80.5,40.5C 80.9377,39.4937 81.6043,39.4937 82.5,40.5 Z"/></g>
<g><path style="opacity:1" fill="#e0bd5e" d="M 96.5,43.5 C 96.5,44.1667 96.5,44.8333 96.5,45.5C 94.9893,49.2522 95.3227,52.9189 97.5,56.5C 97.3333,56.8333 97.1667,57.1667 97,57.5C 96.2917,56.6195 95.4584,55.9528 94.5,55.5C 92.8519,51.0225 93.5186,47.0225 96.5,43.5 Z"/></g>
<g><path style="opacity:1" fill="#7e3204" d="M 102.5,35.5 C 100.991,41.1297 102.991,44.963 108.5,47C 107.572,47.3879 106.905,48.0546 106.5,49C 109.247,49.9358 111.913,51.7692 114.5,54.5C 112.667,55.9684 112.334,57.6351 113.5,59.5C 115.112,58.4514 116.112,56.9514 116.5,55C 113.571,51.6177 114.238,50.7844 118.5,52.5C 118.307,55.3085 117.64,57.9752 116.5,60.5C 115.5,60.5 114.5,60.5 113.5,60.5C 111.167,60.5 108.833,60.5 106.5,60.5C 106.5,60.1667 106.5,59.8333 106.5,59.5C 108.592,59.4386 110.092,58.4386 111,56.5C 111.113,52.0785 110.28,51.7451 108.5,55.5C 106.801,56.8146 105.135,56.8146 103.5,55.5C 103.663,53.1432 103.497,50.8098 103,48.5C 102.617,47.944 102.117,47.6107 101.5,47.5C 101.297,45.9557 100.63,44.6223 99.5,43.5C 100.326,42.549 100.492,41.549 100,40.5C 99.1072,41.7112 98.2739,41.7112 97.5,40.5C 99.9458,39.0172 99.6124,37.8505 96.5,37C 98.5183,36.4954 100.518,35.9954 102.5,35.5 Z"/></g>
<g><path style="opacity:1" fill="#b86002" d="M 67.5,37.5 C 68.1667,37.5 68.8333,37.5 69.5,37.5C 71.1214,39.2299 72.4548,41.2299 73.5,43.5C 73.2465,45.4008 73.5798,46.0674 74.5,45.5C 75.3138,43.369 75.8138,41.0356 76,38.5C 77.1475,46.4175 74.9808,53.2509 69.5,59C 69.9902,61.3461 70.6568,63.5128 71.5,65.5C 70.4955,66.6828 69.6622,68.0161 69,69.5C 68.1301,68.8921 67.6301,68.0588 67.5,67C 68.3295,65.5349 68.4962,64.0349 68,62.5C 66.5977,70.4274 65.2644,70.4274 64,62.5C 63.6667,62.8333 63.3333,63.1667 63,63.5C 63.5303,59.7376 64.697,56.071 66.5,52.5C 65.8728,51.5832 65.5394,50.5832 65.5,49.5C 65.5,49.1667 65.5,48.8333 65.5,48.5C 66.9311,48.8807 67.7645,49.8807 68,51.5C 68.5541,48.3418 69.0541,45.1751 69.5,42C 69.1988,37.5526 68.6988,37.7193 68,42.5C 67.3292,41.7476 66.4959,41.4142 65.5,41.5C 66.6005,40.3951 67.2671,39.0618 67.5,37.5 Z"/></g>
<g><path style="opacity:1" fill="#e0962b" d="M 88.5,50.5 C 88.8938,51.9672 89.2272,53.4672 89.5,55C 89.6134,56.6991 88.9468,57.8658 87.5,58.5C 86.241,52.2245 85.741,45.8912 86,39.5C 87.1584,43.0602 87.9918,46.7269 88.5,50.5 Z"/></g>
<g><path style="opacity:1" fill="#ed920a" d="M 62.5,50.5 C 60.2646,50.7947 58.2646,50.4614 56.5,49.5C 56.3893,48.8826 56.056,48.3826 55.5,48C 58.6939,46.9193 61.0272,47.7526 62.5,50.5 Z"/></g>
<g><path style="opacity:1" fill="#5b1501" d="M 65.5,48.5 C 65.5,48.8333 65.5,49.1667 65.5,49.5C 63.8714,51.8577 62.7048,54.5243 62,57.5C 61.6667,56.1667 61.3333,54.8333 61,53.5C 60.6924,54.3081 60.1924,54.9747 59.5,55.5C 57.6442,55.2077 55.9776,55.2077 54.5,55.5C 54.5,54.8333 54.5,54.1667 54.5,53.5C 53.7659,52.2921 53.4326,50.9587 53.5,49.5C 54.5,49.5 55.5,49.5 56.5,49.5C 58.2646,50.4614 60.2646,50.7947 62.5,50.5C 63.2223,49.4489 64.2223,48.7822 65.5,48.5 Z"/></g>
<g><path style="opacity:1" fill="#f8bb31" d="M 96.5,47.5 C 97.9265,49.1484 98.7599,51.1484 99,53.5C 99.6891,54.3567 100.522,55.0233 101.5,55.5C 101.676,53.1143 101.676,50.4476 101.5,47.5C 102.117,47.6107 102.617,47.944 103,48.5C 103.497,50.8098 103.663,53.1432 103.5,55.5C 101.965,56.7879 100.299,56.7879 98.5,55.5C 97.5178,52.9044 96.8511,50.2377 96.5,47.5 Z"/></g>
<g><path style="opacity:1" fill="#eeac34" d="M 71.5,34.5 C 71.4701,35.4972 71.9701,36.1639 73,36.5C 75.5332,33.9463 77.1999,34.613 78,38.5C 78.4988,42.4862 78.6655,46.4862 78.5,50.5C 77.7611,50.369 77.0944,50.5357 76.5,51C 76.9679,52.822 77.3012,54.9887 77.5,57.5C 77.1667,57.5 76.8333,57.5 76.5,57.5C 76.631,56.7611 76.4643,56.0944 76,55.5C 75.5,57 75,58.5 74.5,60C 74.5699,60.7648 74.9033,61.2648 75.5,61.5C 75.5,61.8333 75.5,62.1667 75.5,62.5C 74.2597,63.6588 72.9264,64.6588 71.5,65.5C 70.6568,63.5128 69.9902,61.3461 69.5,59C 74.9808,53.2509 77.1475,46.4175 76,38.5C 75.8138,41.0356 75.3138,43.369 74.5,45.5C 74.8134,42.7531 74.48,40.0865 73.5,37.5C 72.7691,39.4012 72.7691,41.4012 73.5,43.5C 72.4548,41.2299 71.1214,39.2299 69.5,37.5C 69.4606,36.4168 69.1272,35.4168 68.5,34.5C 69.6136,33.2241 70.6136,33.2241 71.5,34.5 Z"/></g>
<g><path style="opacity:0.027" fill="#fefffb" d="M 147.5,56.5 C 147.73,54.0172 148.397,53.5172 149.5,55C 149.164,56.0299 148.497,56.5299 147.5,56.5 Z"/></g>
<g><path style="opacity:1" fill="#e38e12" d="M 82.5,47.5 C 87.6692,53.7286 87.6692,60.0619 82.5,66.5C 81.4829,68.5995 80.1495,69.5995 78.5,69.5C 82.0317,66.177 83.8651,62.177 84,57.5C 82.6561,60.8651 80.8227,63.8651 78.5,66.5C 78.0618,66.5654 77.7284,66.3988 77.5,66C 78.7433,64.8455 79.7433,63.5122 80.5,62C 79.3507,60.3963 79.3507,58.7297 80.5,57C 80.0556,55.2382 79.5556,55.4049 79,57.5C 78.1768,64.1344 77.6768,64.1344 77.5,57.5C 77.3012,54.9887 76.9679,52.822 76.5,51C 77.0944,50.5357 77.7611,50.369 78.5,50.5C 79.1667,49.8333 79.8333,49.1667 80.5,48.5C 80.4346,48.9382 80.6012,49.2716 81,49.5C 81.2784,48.5842 81.7784,47.9175 82.5,47.5 Z"/></g>
<g><path style="opacity:1" fill="#9e5109" d="M 96.5,45.5 C 96.5,46.1667 96.5,46.8333 96.5,47.5C 96.8511,50.2377 97.5178,52.9044 98.5,55.5C 100.299,56.7879 101.965,56.7879 103.5,55.5C 105.135,56.8146 106.801,56.8146 108.5,55.5C 110.28,51.7451 111.113,52.0785 111,56.5C 110.092,58.4386 108.592,59.4386 106.5,59.5C 105.833,59.5 105.167,59.5 104.5,59.5C 102.735,58.5386 100.735,58.2053 98.5,58.5C 96.4471,58.5979 94.7804,57.9313 93.5,56.5C 94.1667,56.5 94.5,56.1667 94.5,55.5C 95.4584,55.9528 96.2917,56.6195 97,57.5C 97.1667,57.1667 97.3333,56.8333 97.5,56.5C 95.3227,52.9189 94.9893,49.2522 96.5,45.5 Z"/></g>
<g><path style="opacity:1" fill="#ffeb7f" d="M 36.5,58.5 C 35.5,60.5 34.5,62.5 33.5,64.5C 32.7095,65.4013 31.7095,66.0679 30.5,66.5C 29.1667,66.5 28.5,65.8333 28.5,64.5C 29.5624,63.4246 29.5624,62.4246 28.5,61.5C 26.8144,62.8569 25.1477,64.1902 23.5,65.5C 25.954,59.9936 30.2873,57.6603 36.5,58.5 Z"/></g>
<g><path style="opacity:1" fill="#f6ecc3" d="M 76.5,57.5 C 76.5,58.5 76.5,59.5 76.5,60.5C 75.8333,60.5 75.5,60.8333 75.5,61.5C 74.9033,61.2648 74.5699,60.7648 74.5,60C 75,58.5 75.5,57 76,55.5C 76.4643,56.0944 76.631,56.7611 76.5,57.5 Z"/></g>
<g><path style="opacity:1" fill="#eea221" d="M 36.5,58.5 C 40.2488,58.7506 43.9155,59.4172 47.5,60.5C 47.1667,62.5 46.8333,64.5 46.5,66.5C 45.1667,66.5 43.8333,66.5 42.5,66.5C 41.7784,66.0825 41.2784,65.4158 41,64.5C 40.6667,65.8333 40.3333,67.1667 40,68.5C 39.3292,69.2524 38.4959,69.5858 37.5,69.5C 37.0269,68.0937 36.0269,67.427 34.5,67.5C 34.7373,66.209 34.404,65.209 33.5,64.5C 34.5,62.5 35.5,60.5 36.5,58.5 Z"/></g>
<g><path style="opacity:1" fill="#e68100" d="M 91.5,52.5 C 91.2291,54.3797 91.8958,55.713 93.5,56.5C 94.7804,57.9313 96.4471,58.5979 98.5,58.5C 98.4285,61.1933 98.0951,63.8599 97.5,66.5C 97.5993,69.6074 98.5993,72.274 100.5,74.5C 98.139,74.3259 95.8056,73.9926 93.5,73.5C 93.1838,70.7435 92.1838,68.2435 90.5,66C 91.3542,65.4261 92.3542,64.7594 93.5,64C 93.1015,62.0188 92.1015,60.5188 90.5,59.5C 90.1984,56.9407 90.5318,54.6074 91.5,52.5 Z"/></g>
<g><path style="opacity:1" fill="#b15c02" d="M 88.5,50.5 C 90.0269,50.427 91.0269,51.0937 91.5,52.5C 90.5318,54.6074 90.1984,56.9407 90.5,59.5C 89.9759,61.3057 89.3092,62.9724 88.5,64.5C 87.6236,64.6309 86.9569,64.2975 86.5,63.5C 87.3094,61.9291 87.6427,60.2624 87.5,58.5C 88.9468,57.8658 89.6134,56.6991 89.5,55C 89.2272,53.4672 88.8938,51.9672 88.5,50.5 Z"/></g>
<g><path style="opacity:1" fill="#f9b231" d="M 90.5,59.5 C 92.1015,60.5188 93.1015,62.0188 93.5,64C 92.3542,64.7594 91.3542,65.4261 90.5,66C 92.1838,68.2435 93.1838,70.7435 93.5,73.5C 93.5,73.8333 93.5,74.1667 93.5,74.5C 92.8826,74.6107 92.3826,74.944 92,75.5C 91.9471,72.3898 90.6137,70.0565 88,68.5C 87.7638,70.764 87.2638,72.9307 86.5,75C 87.4491,75.6172 88.2825,75.4506 89,74.5C 89.4986,78.1516 89.6653,81.8183 89.5,85.5C 89.0598,88.3798 88.0598,91.0465 86.5,93.5C 85.6618,93.1583 85.3284,92.4916 85.5,91.5C 86.9723,89.8825 87.639,87.8825 87.5,85.5C 87.3333,84.1667 87.1667,82.8333 87,81.5C 84.1363,79.8492 82.9696,77.3492 83.5,74C 83.5637,71.2821 84.5637,69.1155 86.5,67.5C 87.1667,66.5 87.8333,65.5 88.5,64.5C 89.3092,62.9724 89.9759,61.3057 90.5,59.5 Z"/></g>
<g><path style="opacity:1" fill="#7e3102" d="M 94.5,21.5 C 95.8333,24.1667 95.8333,26.8333 94.5,29.5C 94.3957,27.0272 93.3957,26.3606 91.5,27.5C 92.8615,32.9511 94.5282,38.2845 96.5,43.5C 93.5186,47.0225 92.8519,51.0225 94.5,55.5C 94.5,56.1667 94.1667,56.5 93.5,56.5C 91.8958,55.713 91.2291,54.3797 91.5,52.5C 91.0269,51.0937 90.0269,50.427 88.5,50.5C 87.9918,46.7269 87.1584,43.0602 86,39.5C 85.741,45.8912 86.241,52.2245 87.5,58.5C 87.6427,60.2624 87.3094,61.9291 86.5,63.5C 86.9569,64.2975 87.6236,64.6309 88.5,64.5C 87.8333,65.5 87.1667,66.5 86.5,67.5C 85.5,67.5 84.5,67.5 83.5,67.5C 83.5,66.8333 83.1667,66.5 82.5,66.5C 87.6692,60.0619 87.6692,53.7286 82.5,47.5C 82.5,45.1667 82.5,42.8333 82.5,40.5C 82.1218,38.079 81.4552,35.7457 80.5,33.5C 82.7702,34.1248 83.1035,33.1248 81.5,30.5C 82.3333,30.1667 83.1667,29.8333 84,29.5C 87.8252,30.1593 90.3252,32.3259 91.5,36C 90.8333,36.6667 90.1667,37.3333 89.5,38C 91.0602,40.2886 92.2269,42.7886 93,45.5C 93.7811,44.2713 94.2811,42.938 94.5,41.5C 92.9845,36.4331 91.3178,31.4331 89.5,26.5C 90.8333,25.8333 91.8333,24.8333 92.5,23.5C 92.8333,22.5 93.5,21.8333 94.5,21.5 Z"/></g>
<g><path style="opacity:1" fill="#b65b01" d="M 78.5,66.5 C 78.44,67.0431 78.1067,67.3764 77.5,67.5C 76.5258,65.2573 76.1924,62.924 76.5,60.5C 76.5,59.5 76.5,58.5 76.5,57.5C 76.8333,57.5 77.1667,57.5 77.5,57.5C 77.6768,64.1344 78.1768,64.1344 79,57.5C 79.5556,55.4049 80.0556,55.2382 80.5,57C 79.3507,58.7297 79.3507,60.3963 80.5,62C 79.7433,63.5122 78.7433,64.8455 77.5,66C 77.7284,66.3988 78.0618,66.5654 78.5,66.5 Z"/></g>
<g><path style="opacity:1" fill="#ffe98b" d="M 130.5,58.5 C 134.019,57.1923 137.685,57.1923 141.5,58.5C 145.533,60.4002 149.199,62.7335 152.5,65.5C 153.416,65.4573 154.083,65.1239 154.5,64.5C 156.179,65.9163 157.846,67.2497 159.5,68.5C 158.766,69.7079 158.433,71.0413 158.5,72.5C 157.31,70.6455 155.977,68.8121 154.5,67C 152.67,66.8184 151.003,67.3184 149.5,68.5C 146.729,66.233 144.062,63.733 141.5,61C 138.077,59.0961 134.41,58.2628 130.5,58.5 Z"/></g>
<g><path style="opacity:1" fill="#d9a141" d="M 9.5,66.5 C 9.5,66.8333 9.5,67.1667 9.5,67.5C 7.64587,70.1059 5.31254,71.1059 2.5,70.5C 3.04375,65.8089 5.37708,64.4756 9.5,66.5 Z"/></g>
<g><path style="opacity:1" fill="#974202" d="M 28.5,64.5 C 27.1667,65.9335 25.6667,67.2668 24,68.5C 23.5357,67.9056 23.369,67.2389 23.5,66.5C 23.5,66.1667 23.5,65.8333 23.5,65.5C 25.1477,64.1902 26.8144,62.8569 28.5,61.5C 29.5624,62.4246 29.5624,63.4246 28.5,64.5 Z"/></g>
<g><path style="opacity:1" fill="#f79806" d="M 98.5,58.5 C 100.735,58.2053 102.735,58.5386 104.5,59.5C 103.167,59.5 101.833,59.5 100.5,59.5C 99.4422,65.7665 101.109,71.0998 105.5,75.5C 106.799,74.91 107.632,73.91 108,72.5C 108.805,69.3035 108.638,66.3035 107.5,63.5C 107.443,62.391 107.11,61.391 106.5,60.5C 108.833,60.5 111.167,60.5 113.5,60.5C 114.551,61.2223 115.218,62.2223 115.5,63.5C 111.135,62.7273 110.469,64.2273 113.5,68C 115.692,68.926 117.692,70.0927 119.5,71.5C 118.469,72.2485 117.302,72.9152 116,73.5C 114.738,71.6972 113.071,70.3639 111,69.5C 109.815,71.3772 108.815,73.3772 108,75.5C 106.89,77.0368 105.39,77.7035 103.5,77.5C 102.167,76.8333 101.167,75.8333 100.5,74.5C 98.5993,72.274 97.5993,69.6074 97.5,66.5C 98.0951,63.8599 98.4285,61.1933 98.5,58.5 Z"/></g>
<g><path style="opacity:1" fill="#783006" d="M 154.5,64.5 C 154.56,63.9569 154.893,63.6236 155.5,63.5C 159.29,64.565 162.957,65.8984 166.5,67.5C 164.857,67.6495 163.19,67.9829 161.5,68.5C 160.833,68.5 160.167,68.5 159.5,68.5C 157.846,67.2497 156.179,65.9163 154.5,64.5 Z"/></g>
<g><path style="opacity:1" fill="#ffc546" d="M 115.5,63.5 C 116.847,66.1932 118.18,68.8599 119.5,71.5C 117.692,70.0927 115.692,68.926 113.5,68C 110.469,64.2273 111.135,62.7273 115.5,63.5 Z"/></g>
<g><path style="opacity:1" fill="#e2a239" d="M 54.5,83.5 C 53.8333,83.8333 53.1667,84.1667 52.5,84.5C 52.5,83.1667 52.5,81.8333 52.5,80.5C 52.2164,75.5636 51.2164,70.8969 49.5,66.5C 52.8561,64.6206 56.5227,64.1206 60.5,65C 63.2594,67.5738 62.926,69.7405 59.5,71.5C 57.6769,70.5091 56.1769,69.1757 55,67.5C 54.6076,70.1879 54.1076,72.8546 53.5,75.5C 54.2692,78.1147 54.6025,80.7814 54.5,83.5 Z"/></g>
<g><path style="opacity:1" fill="#fdc34b" d="M 104.5,59.5 C 105.167,59.5 105.833,59.5 106.5,59.5C 106.5,59.8333 106.5,60.1667 106.5,60.5C 107.11,61.391 107.443,62.391 107.5,63.5C 108.638,66.3035 108.805,69.3035 108,72.5C 107.632,73.91 106.799,74.91 105.5,75.5C 101.109,71.0998 99.4422,65.7665 100.5,59.5C 101.833,59.5 103.167,59.5 104.5,59.5 Z"/></g>
<g><path style="opacity:0.806" fill="#fdf9f4" d="M 159.5,68.5 C 160.167,68.5 160.833,68.5 161.5,68.5C 165.04,69.3872 168.373,70.7205 171.5,72.5C 176.324,77.1465 179.324,82.8132 180.5,89.5C 180.192,92.592 179.192,95.4254 177.5,98C 175.463,97.5174 173.463,96.6841 171.5,95.5C 168.214,93.5488 165.214,91.2154 162.5,88.5C 160.825,83.1317 159.491,77.7983 158.5,72.5C 158.433,71.0413 158.766,69.7079 159.5,68.5 Z M 162.5,72.5 C 162.624,77.2888 163.458,81.9555 165,86.5C 167.958,90.1453 171.625,92.812 176,94.5C 178.415,83.0058 173.915,75.6725 162.5,72.5 Z"/></g>
<g><path style="opacity:1" fill="#641d02" d="M 82.5,66.5 C 83.1667,66.5 83.5,66.8333 83.5,67.5C 81.7315,70.2766 79.3982,72.2766 76.5,73.5C 75.8333,73.5 75.5,73.8333 75.5,74.5C 74.5,74.8333 73.8333,75.5 73.5,76.5C 72.5489,75.0813 72.2155,73.4147 72.5,71.5C 76.5129,71.4804 77.1795,70.147 74.5,67.5C 75.3094,65.9291 75.6427,64.2624 75.5,62.5C 75.5,62.1667 75.5,61.8333 75.5,61.5C 75.5,60.8333 75.8333,60.5 76.5,60.5C 76.1924,62.924 76.5258,65.2573 77.5,67.5C 78.1067,67.3764 78.44,67.0431 78.5,66.5C 80.8227,63.8651 82.6561,60.8651 84,57.5C 83.8651,62.177 82.0317,66.177 78.5,69.5C 80.1495,69.5995 81.4829,68.5995 82.5,66.5 Z"/></g>
<g><path style="opacity:1" fill="#feeda6" d="M 107.5,63.5 C 107.664,66.1873 107.497,68.854 107,71.5C 106,72.8333 105,72.8333 104,71.5C 102.421,67.8803 102.255,64.2137 103.5,60.5C 104.852,61.5244 106.185,62.5244 107.5,63.5 Z"/></g>
<g><path style="opacity:1" fill="#e38103" d="M 126.5,58.5 C 127.5,58.5 128.5,58.5 129.5,58.5C 128.542,59.9616 127.376,61.2949 126,62.5C 124.828,68.173 123.661,73.8397 122.5,79.5C 123.873,79.6567 125.207,79.49 126.5,79C 125.027,78.2904 124.36,77.1238 124.5,75.5C 125.5,75.5 126.5,75.5 127.5,75.5C 127.5,74.1667 127.5,72.8333 127.5,71.5C 129.099,71.7678 130.432,71.4345 131.5,70.5C 131.833,70.5 132.167,70.5 132.5,70.5C 133.468,68.3926 133.802,66.0593 133.5,63.5C 134.5,63.5 135.5,63.5 136.5,63.5C 136.5,67.1667 136.5,70.8333 136.5,74.5C 135.039,78.9053 135.372,83.2386 137.5,87.5C 137.167,87.5 136.833,87.5 136.5,87.5C 133.075,82.7914 128.408,80.7914 122.5,81.5C 116.111,81.8218 109.945,83.1552 104,85.5C 99.7756,85.164 95.9422,83.8306 92.5,81.5C 91.5748,82.3569 90.9081,83.3569 90.5,84.5C 90.5,85.1667 90.1667,85.5 89.5,85.5C 89.6653,81.8183 89.4986,78.1516 89,74.5C 88.2825,75.4506 87.4491,75.6172 86.5,75C 87.2638,72.9307 87.7638,70.764 88,68.5C 90.6137,70.0565 91.9471,72.3898 92,75.5C 92.3826,74.944 92.8826,74.6107 93.5,74.5C 93.1043,77.0444 93.771,79.2111 95.5,81C 99.0332,81.9031 102.367,81.5697 105.5,80C 104.244,79.5831 103.577,78.7498 103.5,77.5C 105.39,77.7035 106.89,77.0368 108,75.5C 108.815,73.3772 109.815,71.3772 111,69.5C 113.071,70.3639 114.738,71.6972 116,73.5C 117.302,72.9152 118.469,72.2485 119.5,71.5C 118.18,68.8599 116.847,66.1932 115.5,63.5C 115.218,62.2223 114.551,61.2223 113.5,60.5C 114.5,60.5 115.5,60.5 116.5,60.5C 119.833,59.8333 123.167,59.1667 126.5,58.5 Z"/></g>
<g><path style="opacity:1" fill="#ffed9b" d="M 118.5,64.5 C 120.167,64.5 121.833,64.5 123.5,64.5C 122.65,70.7552 120.983,70.7552 118.5,64.5 Z"/></g>
<g><path style="opacity:1" fill="#9f550a" d="M 161.5,68.5 C 163.19,67.9829 164.857,67.6495 166.5,67.5C 170.542,68.8514 173.875,71.1848 176.5,74.5C 176.565,74.9382 176.399,75.2716 176,75.5C 174.871,73.8588 173.371,72.8588 171.5,72.5C 168.373,70.7205 165.04,69.3872 161.5,68.5 Z"/></g>
<g><path style="opacity:1" fill="#a84e03" d="M 9.5,67.5 C 9.20528,69.7354 9.53862,71.7354 10.5,73.5C 10.3841,76.8599 10.0508,80.1933 9.5,83.5C 8.22331,85.914 6.55664,86.0807 4.5,84C 7.43517,83.8992 8.76851,82.3992 8.5,79.5C 8.55827,75.0593 6.39161,72.726 2,72.5C 1.30831,71.5632 1.47498,70.8966 2.5,70.5C 5.31254,71.1059 7.64587,70.1059 9.5,67.5 Z"/></g>
<g><path style="opacity:1" fill="#d67503" d="M 54.5,53.5 C 54.5,54.1667 54.5,54.8333 54.5,55.5C 53.9569,55.56 53.6236,55.8933 53.5,56.5C 54.1667,57.1667 54.8333,57.8333 55.5,58.5C 54.1468,59.5237 53.4802,60.857 53.5,62.5C 51.8561,62.7135 50.3561,62.3802 49,61.5C 48.5983,62.8721 48.0983,64.2054 47.5,65.5C 47.9569,66.2975 48.6236,66.6309 49.5,66.5C 51.2164,70.8969 52.2164,75.5636 52.5,80.5C 51.8333,82.1667 51.1667,83.8333 50.5,85.5C 50.4812,78.4694 49.9812,78.136 49,84.5C 46.9592,83.5769 44.7925,83.2436 42.5,83.5C 42.1075,81.7162 41.4408,80.0495 40.5,78.5C 41.5498,78.0954 41.5498,77.4288 40.5,76.5C 37.7245,73.9936 35.0578,73.9936 32.5,76.5C 32.1583,75.6618 31.4916,75.3284 30.5,75.5C 28.8333,75.5 27.1667,75.5 25.5,75.5C 24.448,75.3505 23.448,75.5172 22.5,76C 23.7112,76.8928 23.7112,77.7261 22.5,78.5C 21.2011,77.91 20.3678,76.91 20,75.5C 18.3333,76.8333 16.6667,76.8333 15,75.5C 13.6842,78.6883 13.1842,82.0217 13.5,85.5C 12.8333,83.5 12.1667,81.5 11.5,79.5C 11.8468,76.6591 11.5135,74.6591 10.5,73.5C 9.53862,71.7354 9.20528,69.7354 9.5,67.5C 9.5,67.1667 9.5,66.8333 9.5,66.5C 11.8984,66.2594 13.8984,66.9261 15.5,68.5C 14.2617,68.81 14.2617,69.31 15.5,70C 17.8098,70.4966 20.1432,70.6633 22.5,70.5C 22.5,69.5 22.5,68.5 22.5,67.5C 22.5,66.8333 22.8333,66.5 23.5,66.5C 23.369,67.2389 23.5357,67.9056 24,68.5C 25.6667,67.2668 27.1667,65.9335 28.5,64.5C 28.5,65.8333 29.1667,66.5 30.5,66.5C 29.1294,70.0583 29.796,70.3916 32.5,67.5C 32.6691,68.3966 33.0024,69.3966 33.5,70.5C 34.3857,69.675 34.719,68.675 34.5,67.5C 36.0269,67.427 37.0269,68.0937 37.5,69.5C 37.0618,69.4346 36.7284,69.6012 36.5,70C 37.6667,70.5 38.5,71.3333 39,72.5C 41.8245,70.8122 44.9912,69.9789 48.5,70C 48.8333,69.6667 49.1667,69.3333 49.5,69C 46.9963,68.3024 44.663,67.4691 42.5,66.5C 43.8333,66.5 45.1667,66.5 46.5,66.5C 46.8333,64.5 47.1667,62.5 47.5,60.5C 48.5,60.1667 49.1667,59.5 49.5,58.5C 50.3764,58.6309 51.0431,58.2975 51.5,57.5C 50.5721,56.2322 50.4054,54.8989 51,53.5C 51.9862,54.1712 53.1529,54.1712 54.5,53.5 Z"/></g>
<g><path style="opacity:1" fill="#752502" d="M 42.5,66.5 C 44.663,67.4691 46.9963,68.3024 49.5,69C 49.1667,69.3333 48.8333,69.6667 48.5,70C 44.9912,69.9789 41.8245,70.8122 39,72.5C 38.5,71.3333 37.6667,70.5 36.5,70C 36.7284,69.6012 37.0618,69.4346 37.5,69.5C 38.4959,69.5858 39.3292,69.2524 40,68.5C 40.3333,67.1667 40.6667,65.8333 41,64.5C 41.2784,65.4158 41.7784,66.0825 42.5,66.5 Z"/></g>
<g><path style="opacity:1" fill="#7d2a02" d="M 22.5,67.5 C 22.5,68.5 22.5,69.5 22.5,70.5C 20.1432,70.6633 17.8098,70.4966 15.5,70C 14.2617,69.31 14.2617,68.81 15.5,68.5C 17.9496,68.702 20.283,68.3686 22.5,67.5 Z"/></g>
<g><path style="opacity:1" fill="#691901" d="M 33.5,64.5 C 34.404,65.209 34.7373,66.209 34.5,67.5C 34.719,68.675 34.3857,69.675 33.5,70.5C 33.0024,69.3966 32.6691,68.3966 32.5,67.5C 29.796,70.3916 29.1294,70.0583 30.5,66.5C 31.7095,66.0679 32.7095,65.4013 33.5,64.5 Z"/></g>
<g><path style="opacity:1" fill="#c06100" d="M 146.5,68.5 C 146.5,68.8333 146.5,69.1667 146.5,69.5C 145.91,74.5948 146.91,79.2615 149.5,83.5C 148.254,88.57 146.087,89.2366 143,85.5C 141.076,80.6187 139.576,75.6187 138.5,70.5C 138.338,68.4727 138.505,66.4727 139,64.5C 141.57,65.7711 144.07,67.1045 146.5,68.5 Z"/></g>
<g><path style="opacity:1" fill="#8f3f02" d="M 65.5,49.5 C 65.5394,50.5832 65.8728,51.5832 66.5,52.5C 64.697,56.071 63.5303,59.7376 63,63.5C 63.3333,63.1667 63.6667,62.8333 64,62.5C 65.2644,70.4274 66.5977,70.4274 68,62.5C 68.4962,64.0349 68.3295,65.5349 67.5,67C 67.6301,68.0588 68.1301,68.8921 69,69.5C 69.6622,68.0161 70.4955,66.6828 71.5,65.5C 72.9264,64.6588 74.2597,63.6588 75.5,62.5C 75.6427,64.2624 75.3094,65.9291 74.5,67.5C 77.1795,70.147 76.5129,71.4804 72.5,71.5C 72.2155,73.4147 72.5489,75.0813 73.5,76.5C 73.5,77.1667 73.1667,77.5 72.5,77.5C 69.4453,79.8158 68.7786,82.8158 70.5,86.5C 71.9217,85.2232 72.9217,85.5565 73.5,87.5C 73.5,88.5 73.5,89.5 73.5,90.5C 72.7321,89.7375 72.2321,88.7375 72,87.5C 70.8456,89.9574 69.5123,89.9574 68,87.5C 65.6779,83.365 63.8445,79.0317 62.5,74.5C 61.5,75 60.5,75.5 59.5,76C 60.3972,78.0871 61.0639,80.2537 61.5,82.5C 60.2618,81.5876 58.9285,81.4209 57.5,82C 56.9205,83.3349 56.5872,84.5015 56.5,85.5C 55.5,85.1667 54.8333,84.5 54.5,83.5C 54.6025,80.7814 54.2692,78.1147 53.5,75.5C 54.1076,72.8546 54.6076,70.1879 55,67.5C 56.1769,69.1757 57.6769,70.5091 59.5,71.5C 62.926,69.7405 63.2594,67.5738 60.5,65C 56.5227,64.1206 52.8561,64.6206 49.5,66.5C 48.6236,66.6309 47.9569,66.2975 47.5,65.5C 48.0983,64.2054 48.5983,62.8721 49,61.5C 50.3561,62.3802 51.8561,62.7135 53.5,62.5C 53.4802,60.857 54.1468,59.5237 55.5,58.5C 54.8333,57.8333 54.1667,57.1667 53.5,56.5C 53.6236,55.8933 53.9569,55.56 54.5,55.5C 55.9776,55.2077 57.6442,55.2077 59.5,55.5C 60.1924,54.9747 60.6924,54.3081 61,53.5C 61.3333,54.8333 61.6667,56.1667 62,57.5C 62.7048,54.5243 63.8714,51.8577 65.5,49.5 Z"/></g>
<g><path style="opacity:1" fill="#f89b0b" d="M 129.5,58.5 C 129.833,58.5 130.167,58.5 130.5,58.5C 134.41,58.2628 138.077,59.0961 141.5,61C 144.062,63.733 146.729,66.233 149.5,68.5C 149.167,68.5 148.833,68.5 148.5,68.5C 147.604,67.4937 146.938,67.4937 146.5,68.5C 144.07,67.1045 141.57,65.7711 139,64.5C 138.505,66.4727 138.338,68.4727 138.5,70.5C 137.833,71.8333 137.167,73.1667 136.5,74.5C 136.5,70.8333 136.5,67.1667 136.5,63.5C 135.5,63.5 134.5,63.5 133.5,63.5C 133.802,66.0593 133.468,68.3926 132.5,70.5C 132.892,65.8588 130.892,63.5255 126.5,63.5C 126.993,65.8056 127.326,68.139 127.5,70.5C 128.833,70.5 130.167,70.5 131.5,70.5C 130.432,71.4345 129.099,71.7678 127.5,71.5C 127.5,72.8333 127.5,74.1667 127.5,75.5C 126.5,75.5 125.5,75.5 124.5,75.5C 124.36,77.1238 125.027,78.2904 126.5,79C 125.207,79.49 123.873,79.6567 122.5,79.5C 123.661,73.8397 124.828,68.173 126,62.5C 127.376,61.2949 128.542,59.9616 129.5,58.5 Z"/></g>
<g><path style="opacity:1" fill="#ffeb95" d="M 132.5,70.5 C 132.167,70.5 131.833,70.5 131.5,70.5C 130.167,70.5 128.833,70.5 127.5,70.5C 127.326,68.139 126.993,65.8056 126.5,63.5C 130.892,63.5255 132.892,65.8588 132.5,70.5 Z"/></g>
<g><path style="opacity:1" fill="#e47f00" d="M 83.5,67.5 C 84.5,67.5 85.5,67.5 86.5,67.5C 84.5637,69.1155 83.5637,71.2821 83.5,74C 82.9696,77.3492 84.1363,79.8492 87,81.5C 87.1667,82.8333 87.3333,84.1667 87.5,85.5C 87.639,87.8825 86.9723,89.8825 85.5,91.5C 85.6495,90.448 85.4828,89.448 85,88.5C 83.4587,92.9199 80.6254,94.2532 76.5,92.5C 75.7095,91.5987 74.7095,90.9321 73.5,90.5C 73.5,89.5 73.5,88.5 73.5,87.5C 74.6697,89.2785 76.3364,90.2785 78.5,90.5C 79.2197,84.8623 79.553,79.1956 79.5,73.5C 78.5,73.5 77.5,73.5 76.5,73.5C 79.3982,72.2766 81.7315,70.2766 83.5,67.5 Z"/></g>
<g><path style="opacity:1" fill="#ac5400" d="M 93.5,73.5 C 95.8056,73.9926 98.139,74.3259 100.5,74.5C 101.167,75.8333 102.167,76.8333 103.5,77.5C 103.577,78.7498 104.244,79.5831 105.5,80C 102.367,81.5697 99.0332,81.9031 95.5,81C 93.771,79.2111 93.1043,77.0444 93.5,74.5C 93.5,74.1667 93.5,73.8333 93.5,73.5 Z"/></g>
<g><path style="opacity:1" fill="#fcf1a8" d="M 25.5,75.5 C 27.1667,75.5 28.8333,75.5 30.5,75.5C 30.719,76.675 30.3857,77.675 29.5,78.5C 28.7348,77.3881 27.7348,76.7214 26.5,76.5C 25.8333,76.5 25.5,76.1667 25.5,75.5 Z"/></g>
<g><path style="opacity:1" fill="#fee567" d="M 75.5,74.5 C 76.5,74.5 77.5,74.5 78.5,74.5C 78.5153,78.5598 78.0153,82.5598 77,86.5C 75.2074,83.6064 73.7074,80.6064 72.5,77.5C 73.1667,77.5 73.5,77.1667 73.5,76.5C 73.8333,75.5 74.5,74.8333 75.5,74.5 Z"/></g>
<g><path style="opacity:1" fill="#ffdb68" d="M 148.5,68.5 C 150.5,71.5 152.5,74.5 154.5,77.5C 154.728,79.3547 154.061,80.1881 152.5,80C 149.732,76.7949 147.732,73.2949 146.5,69.5C 146.5,69.1667 146.5,68.8333 146.5,68.5C 146.938,67.4937 147.604,67.4937 148.5,68.5 Z"/></g>
<g><path style="opacity:1" fill="#934a0c" d="M 30.5,75.5 C 31.4916,75.3284 32.1583,75.6618 32.5,76.5C 32.5,77.1667 32.5,77.8333 32.5,78.5C 31.791,79.404 30.791,79.7373 29.5,79.5C 29.7254,81.7159 28.8921,83.3826 27,84.5C 26.6466,83.3284 26.8132,82.1618 27.5,81C 25.6076,79.6873 25.2742,78.1873 26.5,76.5C 27.7348,76.7214 28.7348,77.3881 29.5,78.5C 30.3857,77.675 30.719,76.675 30.5,75.5 Z"/></g>
<g><path style="opacity:1" fill="#f6bf3c" d="M 40.5,78.5 C 39.1526,77.9717 37.8193,77.805 36.5,78C 38.6157,79.1707 39.2824,80.6707 38.5,82.5C 37.4763,81.1468 36.143,80.4802 34.5,80.5C 34.1667,79.5 33.5,78.8333 32.5,78.5C 32.5,77.8333 32.5,77.1667 32.5,76.5C 35.0578,73.9936 37.7245,73.9936 40.5,76.5C 41.5498,77.4288 41.5498,78.0954 40.5,78.5 Z"/></g>
<g><path style="opacity:1" fill="#ee9f25" d="M 171.5,72.5 C 173.371,72.8588 174.871,73.8588 176,75.5C 176.399,75.2716 176.565,74.9382 176.5,74.5C 178.173,75.343 179.34,76.6763 180,78.5C 182.899,84.6936 183.232,91.0269 181,97.5C 179.951,99.6175 178.451,101.284 176.5,102.5C 176.631,101.624 176.298,100.957 175.5,100.5C 174.482,101.193 173.482,101.859 172.5,102.5C 171.781,100.236 171.448,97.9029 171.5,95.5C 173.463,96.6841 175.463,97.5174 177.5,98C 179.192,95.4254 180.192,92.592 180.5,89.5C 179.324,82.8132 176.324,77.1465 171.5,72.5 Z"/></g>
<g><path style="opacity:1" fill="#edbf5b" d="M 11.5,79.5 C 11.5,81.1667 11.5,82.8333 11.5,84.5C 10.8333,84.1667 10.1667,83.8333 9.5,83.5C 10.0508,80.1933 10.3841,76.8599 10.5,73.5C 11.5135,74.6591 11.8468,76.6591 11.5,79.5 Z"/></g>
<g><path style="opacity:1" fill="#b15b04" d="M 40.5,78.5 C 41.4408,80.0495 42.1075,81.7162 42.5,83.5C 41.8716,86.9549 39.8716,88.1215 36.5,87C 38.2861,86.8038 39.6195,85.9705 40.5,84.5C 38.8347,84.166 37.0014,84.166 35,84.5C 33.4894,83.436 33.3228,82.1026 34.5,80.5C 36.143,80.4802 37.4763,81.1468 38.5,82.5C 39.2824,80.6707 38.6157,79.1707 36.5,78C 37.8193,77.805 39.1526,77.9717 40.5,78.5 Z"/></g>
<g><path style="opacity:1" fill="#f29c0f" d="M 75.5,74.5 C 75.5,73.8333 75.8333,73.5 76.5,73.5C 77.5,73.5 78.5,73.5 79.5,73.5C 79.553,79.1956 79.2197,84.8623 78.5,90.5C 76.3364,90.2785 74.6697,89.2785 73.5,87.5C 72.9217,85.5565 71.9217,85.2232 70.5,86.5C 68.7786,82.8158 69.4453,79.8158 72.5,77.5C 73.7074,80.6064 75.2074,83.6064 77,86.5C 78.0153,82.5598 78.5153,78.5598 78.5,74.5C 77.5,74.5 76.5,74.5 75.5,74.5 Z"/></g>
<g><path style="opacity:1" fill="#dbaf5d" d="M 61.5,82.5 C 61.5,82.8333 61.5,83.1667 61.5,83.5C 61.4431,84.609 61.1098,85.609 60.5,86.5C 59.1264,86.2079 57.7931,85.8746 56.5,85.5C 56.5872,84.5015 56.9205,83.3349 57.5,82C 58.9285,81.4209 60.2618,81.5876 61.5,82.5 Z"/></g>
<g><path style="opacity:1" fill="#ee990f" d="M 25.5,75.5 C 25.5,76.1667 25.8333,76.5 26.5,76.5C 25.2742,78.1873 25.6076,79.6873 27.5,81C 26.8132,82.1618 26.6466,83.3284 27,84.5C 28.8921,83.3826 29.7254,81.7159 29.5,79.5C 30.791,79.7373 31.791,79.404 32.5,78.5C 33.5,78.8333 34.1667,79.5 34.5,80.5C 33.3228,82.1026 33.4894,83.436 35,84.5C 37.0014,84.166 38.8347,84.166 40.5,84.5C 39.6195,85.9705 38.2861,86.8038 36.5,87C 39.8716,88.1215 41.8716,86.9549 42.5,83.5C 44.7925,83.2436 46.9592,83.5769 49,84.5C 49.9812,78.136 50.4812,78.4694 50.5,85.5C 49.645,86.5307 48.9783,87.6974 48.5,89C 48.5699,89.7648 48.9033,90.2648 49.5,90.5C 49.8168,94.7016 49.4834,98.7016 48.5,102.5C 47.6942,101.003 47.0276,99.3361 46.5,97.5C 46.0431,96.7025 45.3764,96.3691 44.5,96.5C 42.0372,96.2189 39.8705,95.2189 38,93.5C 37.6012,93.7284 37.4346,94.0618 37.5,94.5C 36.1984,93.1931 34.865,93.1931 33.5,94.5C 32.1397,92.1516 30.4731,91.9849 28.5,94C 28.8333,94.3333 29.1667,94.6667 29.5,95C 28.552,95.4828 27.552,95.6495 26.5,95.5C 26.8039,94.8501 27.1373,94.1835 27.5,93.5C 17.914,88.7388 13.914,91.7388 15.5,102.5C 14.5166,98.7016 14.1832,94.7016 14.5,90.5C 15.2389,90.631 15.9056,90.4643 16.5,90C 15.6138,88.3853 14.6138,86.8853 13.5,85.5C 13.1842,82.0217 13.6842,78.6883 15,75.5C 16.6667,76.8333 18.3333,76.8333 20,75.5C 20.3678,76.91 21.2011,77.91 22.5,78.5C 23.7112,77.7261 23.7112,76.8928 22.5,76C 23.448,75.5172 24.448,75.3505 25.5,75.5 Z"/></g>
<g><path style="opacity:1" fill="#5b1502" d="M 90.5,84.5 C 95.0395,85.8195 99.7062,86.6529 104.5,87C 105.942,87.3768 106.942,88.2101 107.5,89.5C 105.051,88.9426 102.718,88.9426 100.5,89.5C 101.867,90.84 103.2,92.1733 104.5,93.5C 104.5,94.1667 104.167,94.5 103.5,94.5C 99.3367,92.4734 95.5033,89.8067 92,86.5C 90.2459,89.4918 90.0793,92.4918 91.5,95.5C 91.6633,97.8568 91.4966,100.19 91,102.5C 90.6174,101.944 90.1174,101.611 89.5,101.5C 88.5804,99.1191 88.5804,96.7857 89.5,94.5C 88.5754,93.4376 87.5754,93.4376 86.5,94.5C 86.5,94.1667 86.5,93.8333 86.5,93.5C 88.0598,91.0465 89.0598,88.3798 89.5,85.5C 90.1667,85.5 90.5,85.1667 90.5,84.5 Z"/></g>
<g><path style="opacity:1" fill="#f3960b" d="M 146.5,69.5 C 147.732,73.2949 149.732,76.7949 152.5,80C 154.061,80.1881 154.728,79.3547 154.5,77.5C 157.223,81.637 156.557,85.3036 152.5,88.5C 151.935,86.4565 150.935,84.7898 149.5,83.5C 146.91,79.2615 145.91,74.5948 146.5,69.5 Z"/></g>
<g><path style="opacity:1" fill="#742508" d="M 11.5,79.5 C 12.1667,81.5 12.8333,83.5 13.5,85.5C 14.6138,86.8853 15.6138,88.3853 16.5,90C 15.9056,90.4643 15.2389,90.631 14.5,90.5C 12.461,89.089 11.461,87.089 11.5,84.5C 11.5,82.8333 11.5,81.1667 11.5,79.5 Z"/></g>
<g><path style="opacity:1" fill="#732306" d="M 52.5,80.5 C 52.5,81.8333 52.5,83.1667 52.5,84.5C 52.539,87.089 51.539,89.089 49.5,90.5C 48.9033,90.2648 48.5699,89.7648 48.5,89C 48.9783,87.6974 49.645,86.5307 50.5,85.5C 51.1667,83.8333 51.8333,82.1667 52.5,80.5 Z"/></g>
<g><path style="opacity:1" fill="#783602" d="M 122.5,81.5 C 121.411,83.1171 119.744,83.9504 117.5,84C 121.116,85.4869 124.783,86.8202 128.5,88C 123.749,87.8145 119.083,86.9812 114.5,85.5C 112.667,85.5854 111.334,86.2521 110.5,87.5C 109.624,87.3691 108.957,87.7025 108.5,88.5C 110.444,89.8007 112.444,90.8007 114.5,91.5C 114.167,92.5 113.5,93.1667 112.5,93.5C 111.016,91.9263 109.349,90.593 107.5,89.5C 106.942,88.2101 105.942,87.3768 104.5,87C 99.7062,86.6529 95.0395,85.8195 90.5,84.5C 90.9081,83.3569 91.5748,82.3569 92.5,81.5C 95.9422,83.8306 99.7756,85.164 104,85.5C 109.945,83.1552 116.111,81.8218 122.5,81.5 Z"/></g>
<g><path style="opacity:1" fill="#552402" d="M 122.5,81.5 C 128.408,80.7914 133.075,82.7914 136.5,87.5C 134.262,91.3676 131.928,95.2009 129.5,99C 125.945,99.0557 122.611,98.2223 119.5,96.5C 119.167,96.5 118.833,96.5 118.5,96.5C 118.634,94.7085 118.301,93.0418 117.5,91.5C 118.885,90.6977 118.718,90.0311 117,89.5C 114.846,88.7259 112.679,88.0592 110.5,87.5C 111.334,86.2521 112.667,85.5854 114.5,85.5C 119.083,86.9812 123.749,87.8145 128.5,88C 124.783,86.8202 121.116,85.4869 117.5,84C 119.744,83.9504 121.411,83.1171 122.5,81.5 Z"/></g>
<g><path style="opacity:1" fill="#ae5605" d="M 61.5,83.5 C 63.5338,84.5478 64.8671,86.2145 65.5,88.5C 65.0431,89.2975 64.3764,89.6309 63.5,89.5C 62.1667,88.8333 61.1667,87.8333 60.5,86.5C 61.1098,85.609 61.4431,84.609 61.5,83.5 Z"/></g>
<g><path style="opacity:1" fill="#7f3a05" d="M 136.5,74.5 C 138.635,87.3177 145.968,93.9843 158.5,94.5C 159.59,95.3914 159.59,96.3914 158.5,97.5C 159.365,98.5827 160.365,98.7494 161.5,98C 160.072,94.5259 160.572,94.0259 163,96.5C 164.377,98.7538 165.877,100.92 167.5,103C 165.822,102.888 164.155,102.388 162.5,101.5C 161.584,101.543 160.917,101.876 160.5,102.5C 154.132,97.9836 147.466,93.9836 140.5,90.5C 139.833,89.1667 138.833,88.1667 137.5,87.5C 135.372,83.2386 135.039,78.9053 136.5,74.5 Z"/></g>
<g><path style="opacity:1" fill="#a45200" d="M 103.5,94.5 C 99.5438,95.2838 95.5438,95.6172 91.5,95.5C 90.0793,92.4918 90.2459,89.4918 92,86.5C 95.5033,89.8067 99.3367,92.4734 103.5,94.5 Z"/></g>
<g><path style="opacity:1" fill="#cf7601" d="M 110.5,87.5 C 112.679,88.0592 114.846,88.7259 117,89.5C 118.718,90.0311 118.885,90.6977 117.5,91.5C 116.5,91.5 115.5,91.5 114.5,91.5C 112.444,90.8007 110.444,89.8007 108.5,88.5C 108.957,87.7025 109.624,87.3691 110.5,87.5 Z"/></g>
<g><path style="opacity:1" fill="#d97402" d="M 158.5,72.5 C 159.491,77.7983 160.825,83.1317 162.5,88.5C 160.493,87.3215 160.16,87.8215 161.5,90C 160.376,90.2492 159.376,90.7492 158.5,91.5C 158.667,91.8333 158.833,92.1667 159,92.5C 161.503,92.5126 164.003,93.346 166.5,95C 168.628,97.2728 170.295,99.7728 171.5,102.5C 169.171,104.095 166.505,105.095 163.5,105.5C 162.584,105.457 161.917,105.124 161.5,104.5C 161.167,103.833 160.833,103.167 160.5,102.5C 160.917,101.876 161.584,101.543 162.5,101.5C 164.155,102.388 165.822,102.888 167.5,103C 165.877,100.92 164.377,98.7538 163,96.5C 160.572,94.0259 160.072,94.5259 161.5,98C 160.365,98.7494 159.365,98.5827 158.5,97.5C 159.59,96.3914 159.59,95.3914 158.5,94.5C 145.968,93.9843 138.635,87.3177 136.5,74.5C 137.167,73.1667 137.833,71.8333 138.5,70.5C 139.576,75.6187 141.076,80.6187 143,85.5C 146.087,89.2366 148.254,88.57 149.5,83.5C 150.935,84.7898 151.935,86.4565 152.5,88.5C 156.557,85.3036 157.223,81.637 154.5,77.5C 152.5,74.5 150.5,71.5 148.5,68.5C 148.833,68.5 149.167,68.5 149.5,68.5C 151.003,67.3184 152.67,66.8184 154.5,67C 155.977,68.8121 157.31,70.6455 158.5,72.5 Z"/></g>
<g><path style="opacity:1" fill="#752403" d="M 73.5,90.5 C 74.7095,90.9321 75.7095,91.5987 76.5,92.5C 76.5,93.1667 76.5,93.8333 76.5,94.5C 76.737,98.6434 76.0704,101.31 74.5,102.5C 74.7373,103.791 74.404,104.791 73.5,105.5C 73.3215,102.784 72.8215,100.117 72,97.5C 68.3386,95.6708 65.5053,93.0041 63.5,89.5C 64.3764,89.6309 65.0431,89.2975 65.5,88.5C 64.8671,86.2145 63.5338,84.5478 61.5,83.5C 61.5,83.1667 61.5,82.8333 61.5,82.5C 61.0639,80.2537 60.3972,78.0871 59.5,76C 60.5,75.5 61.5,75 62.5,74.5C 63.8445,79.0317 65.6779,83.365 68,87.5C 69.5123,89.9574 70.8456,89.9574 72,87.5C 72.2321,88.7375 72.7321,89.7375 73.5,90.5 Z"/></g>
<g><path style="opacity:0.809" fill="#fbf8f5" d="M 140.5,90.5 C 147.466,93.9836 154.132,97.9836 160.5,102.5C 160.833,103.167 161.167,103.833 161.5,104.5C 158.946,105.388 156.279,105.721 153.5,105.5C 148.464,105.412 143.464,104.912 138.5,104C 133.885,102.923 132.385,100.09 134,95.5C 135.758,93.2345 137.925,91.5678 140.5,90.5 Z M 139.5,93.5 C 138.878,94.6266 138.045,95.6266 137,96.5C 136.219,97.9437 136.386,99.277 137.5,100.5C 143.767,102.075 150.1,102.908 156.5,103C 150.838,99.8354 145.171,96.6687 139.5,93.5 Z"/></g>
<g><path style="opacity:1" fill="#c46a00" d="M 107.5,89.5 C 109.349,90.593 111.016,91.9263 112.5,93.5C 109.833,93.5 107.167,93.5 104.5,93.5C 103.2,92.1733 101.867,90.84 100.5,89.5C 102.718,88.9426 105.051,88.9426 107.5,89.5 Z"/></g>
<g><path style="opacity:1" fill="#fcbc28" d="M 26.5,95.5 C 26.5,96.8333 25.8333,97.5 24.5,97.5C 23.0471,101.1 21.5471,100.767 20,96.5C 19.1482,97.5707 18.3149,98.5707 17.5,99.5C 16.8333,100.5 16.1667,101.5 15.5,102.5C 13.914,91.7388 17.914,88.7388 27.5,93.5C 27.1373,94.1835 26.8039,94.8501 26.5,95.5 Z"/></g>
<g><path style="opacity:1" fill="#b25d07" d="M 162.5,88.5 C 165.214,91.2154 168.214,93.5488 171.5,95.5C 171.448,97.9029 171.781,100.236 172.5,102.5C 172.167,102.5 171.833,102.5 171.5,102.5C 170.295,99.7728 168.628,97.2728 166.5,95C 164.003,93.346 161.503,92.5126 159,92.5C 158.833,92.1667 158.667,91.8333 158.5,91.5C 159.376,90.7492 160.376,90.2492 161.5,90C 160.16,87.8215 160.493,87.3215 162.5,88.5 Z"/></g>
<g><path style="opacity:1" fill="#ba6200" d="M 85.5,91.5 C 85.3284,92.4916 85.6618,93.1583 86.5,93.5C 86.5,93.8333 86.5,94.1667 86.5,94.5C 84.2077,98.2065 83.8744,102.206 85.5,106.5C 84.0149,104.751 83.0149,102.751 82.5,100.5C 83.167,98.1806 83.3336,95.8473 83,93.5C 81.0765,95.8221 79.7431,98.4888 79,101.5C 78.6667,99.5 78.3333,97.5 78,95.5C 77.6174,94.944 77.1174,94.6107 76.5,94.5C 76.5,93.8333 76.5,93.1667 76.5,92.5C 80.6254,94.2532 83.4587,92.9199 85,88.5C 85.4828,89.448 85.6495,90.448 85.5,91.5 Z"/></g>
<g><path style="opacity:1" fill="#ffd465" d="M 118.5,96.5 C 118.833,96.5 119.167,96.5 119.5,96.5C 119.918,97.2216 120.584,97.7216 121.5,98C 117.032,98.2652 112.698,99.0985 108.5,100.5C 108.611,99.8826 108.944,99.3826 109.5,99C 112.52,98.0989 115.52,97.2655 118.5,96.5 Z"/></g>
<g><path style="opacity:1" fill="#c28631" d="M 37.5,94.5 C 38.2894,95.915 38.9561,97.415 39.5,99C 39.3865,100.28 38.7199,101.113 37.5,101.5C 36.5,100.167 35.5,100.167 34.5,101.5C 32.7299,100.18 32.3966,98.6804 33.5,97C 31.1039,96.134 30.4372,96.634 31.5,98.5C 31.0814,99.6721 30.4147,100.672 29.5,101.5C 28.5745,100.359 27.7412,100.359 27,101.5C 25.5187,100.529 24.6854,99.1958 24.5,97.5C 25.8333,97.5 26.5,96.8333 26.5,95.5C 27.552,95.6495 28.552,95.4828 29.5,95C 29.1667,94.6667 28.8333,94.3333 28.5,94C 30.4731,91.9849 32.1397,92.1516 33.5,94.5C 34.865,93.1931 36.1984,93.1931 37.5,94.5 Z"/></g>
<g><path style="opacity:1" fill="#9b4b04" d="M 89.5,101.5 C 88.7904,103.746 88.2904,106.08 88,108.5C 87.2303,109.598 86.397,109.598 85.5,108.5C 85.5,107.833 85.5,107.167 85.5,106.5C 83.8744,102.206 84.2077,98.2065 86.5,94.5C 87.5754,93.4376 88.5754,93.4376 89.5,94.5C 88.5804,96.7857 88.5804,99.1191 89.5,101.5 Z"/></g>
<g><path style="opacity:1" fill="#fdde5f" d="M 44.5,96.5 C 45.5751,98.8555 45.5751,101.189 44.5,103.5C 43.8076,102.975 43.3076,102.308 43,101.5C 42.79,103.058 42.29,104.391 41.5,105.5C 41.5654,105.062 41.3988,104.728 41,104.5C 40.1841,105.823 39.0174,106.489 37.5,106.5C 37.1034,105.475 36.4368,105.308 35.5,106C 34.5399,107.419 33.7065,108.919 33,110.5C 30.0693,108.576 27.4027,106.243 25,103.5C 24.5304,104.577 24.6971,105.577 25.5,106.5C 24.8333,106.5 24.1667,106.5 23.5,106.5C 22.0427,104.758 20.876,102.758 20,100.5C 18.7753,104.18 17.942,103.847 17.5,99.5C 18.3149,98.5707 19.1482,97.5707 20,96.5C 21.5471,100.767 23.0471,101.1 24.5,97.5C 24.6854,99.1958 25.5187,100.529 27,101.5C 27.7412,100.359 28.5745,100.359 29.5,101.5C 30.4147,100.672 31.0814,99.6721 31.5,98.5C 30.4372,96.634 31.1039,96.134 33.5,97C 32.3966,98.6804 32.7299,100.18 34.5,101.5C 35.5,100.167 36.5,100.167 37.5,101.5C 38.7199,101.113 39.3865,100.28 39.5,99C 38.9561,97.415 38.2894,95.915 37.5,94.5C 37.4346,94.0618 37.6012,93.7284 38,93.5C 39.8705,95.2189 42.0372,96.2189 44.5,96.5 Z"/></g>
<g><path style="opacity:1" fill="#692a04" d="M 137.5,105.5 C 136.833,105.5 136.167,105.5 135.5,105.5C 133.738,105.643 132.071,105.309 130.5,104.5C 129.208,107.619 127.708,110.619 126,113.5C 125.536,112.906 125.369,112.239 125.5,111.5C 125.557,110.391 125.89,109.391 126.5,108.5C 127.451,107.081 127.784,105.415 127.5,103.5C 122.5,103.5 117.5,103.5 112.5,103.5C 110.5,103.5 108.5,103.5 106.5,103.5C 106.611,102.883 106.944,102.383 107.5,102C 117.97,100.513 127.97,101.68 137.5,105.5 Z"/></g>
<g><path style="opacity:1" fill="#cc7c12" d="M 136.5,87.5 C 136.833,87.5 137.167,87.5 137.5,87.5C 138.833,88.1667 139.833,89.1667 140.5,90.5C 137.925,91.5678 135.758,93.2345 134,95.5C 132.385,100.09 133.885,102.923 138.5,104C 143.464,104.912 148.464,105.412 153.5,105.5C 158.305,106.487 163.305,106.821 168.5,106.5C 169.5,106.5 170.5,106.5 171.5,106.5C 171.48,110.513 170.147,111.18 167.5,108.5C 166.824,109.602 166.158,110.602 165.5,111.5C 164.972,110.279 164.305,109.113 163.5,108C 154.764,107.746 146.097,106.913 137.5,105.5C 127.97,101.68 117.97,100.513 107.5,102C 106.944,102.383 106.611,102.883 106.5,103.5C 104.895,104.969 104.395,104.635 105,102.5C 105.816,101.177 106.983,100.511 108.5,100.5C 112.698,99.0985 117.032,98.2652 121.5,98C 120.584,97.7216 119.918,97.2216 119.5,96.5C 122.611,98.2223 125.945,99.0557 129.5,99C 131.928,95.2009 134.262,91.3676 136.5,87.5 Z"/></g>
<g><path style="opacity:1" fill="#8d3e00" d="M 82.5,100.5 C 81.6337,103.954 79.6337,106.288 76.5,107.5C 76.8799,105.302 76.2132,103.635 74.5,102.5C 76.0704,101.31 76.737,98.6434 76.5,94.5C 77.1174,94.6107 77.6174,94.944 78,95.5C 78.3333,97.5 78.6667,99.5 79,101.5C 79.7431,98.4888 81.0765,95.8221 83,93.5C 83.3336,95.8473 83.167,98.1806 82.5,100.5 Z"/></g>
<g><path style="opacity:1" fill="#ffe788" d="M 176.5,102.5 C 173.768,103.866 171.101,105.199 168.5,106.5C 163.305,106.821 158.305,106.487 153.5,105.5C 156.279,105.721 158.946,105.388 161.5,104.5C 161.917,105.124 162.584,105.457 163.5,105.5C 166.505,105.095 169.171,104.095 171.5,102.5C 171.833,102.5 172.167,102.5 172.5,102.5C 173.482,101.859 174.482,101.193 175.5,100.5C 176.298,100.957 176.631,101.624 176.5,102.5 Z"/></g>
<g><path style="opacity:1" fill="#ad5d08" d="M 112.5,103.5 C 117.5,103.5 122.5,103.5 127.5,103.5C 127.784,105.415 127.451,107.081 126.5,108.5C 126.657,107.127 126.49,105.793 126,104.5C 125.138,106.087 124.471,107.754 124,109.5C 122.989,110.337 121.822,110.67 120.5,110.5C 121.536,108.609 121.536,106.776 120.5,105C 117.635,104.817 114.969,104.317 112.5,103.5 Z"/></g>
<g><path style="opacity:1" fill="#bd6706" d="M 135.5,105.5 C 133.167,109.5 130.833,113.5 128.5,117.5C 127.842,116.602 127.176,115.602 126.5,114.5C 125.561,116.053 124.394,117.387 123,118.5C 122.5,118.167 122,117.833 121.5,117.5C 122.361,115.089 123.694,113.089 125.5,111.5C 125.369,112.239 125.536,112.906 126,113.5C 127.708,110.619 129.208,107.619 130.5,104.5C 132.071,105.309 133.738,105.643 135.5,105.5 Z"/></g>
<g><path style="opacity:1" fill="#ed9410" d="M 82.5,100.5 C 83.0149,102.751 84.0149,104.751 85.5,106.5C 85.5,107.167 85.5,107.833 85.5,108.5C 83.9192,110.142 83.2525,112.142 83.5,114.5C 82.7811,116.091 81.7811,117.591 80.5,119C 77.633,119.801 74.9664,119.634 72.5,118.5C 75.4802,118.38 78.3135,117.713 81,116.5C 81.4017,115.128 81.9017,113.795 82.5,112.5C 79.7534,112.067 77.0867,112.734 74.5,114.5C 74.44,113.957 74.1067,113.624 73.5,113.5C 72.265,114.34 71.265,115.34 70.5,116.5C 70.5912,114.302 69.9245,113.969 68.5,115.5C 68.44,114.957 68.1067,114.624 67.5,114.5C 65.736,116.278 63.736,117.611 61.5,118.5C 62.8098,116.852 64.1431,115.186 65.5,113.5C 71.1783,113.822 73.845,111.155 73.5,105.5C 74.404,104.791 74.7373,103.791 74.5,102.5C 76.2132,103.635 76.8799,105.302 76.5,107.5C 79.6337,106.288 81.6337,103.954 82.5,100.5 Z"/></g>
<g><path style="opacity:1" fill="#ffe466" d="M 72.5,118.5 C 72.2291,116.62 72.8958,115.287 74.5,114.5C 77.0867,112.734 79.7534,112.067 82.5,112.5C 81.9017,113.795 81.4017,115.128 81,116.5C 78.3135,117.713 75.4802,118.38 72.5,118.5 Z"/></g>
<g><path style="opacity:1" fill="#f5a41a" d="M 126.5,108.5 C 125.89,109.391 125.557,110.391 125.5,111.5C 123.694,113.089 122.361,115.089 121.5,117.5C 122,117.833 122.5,118.167 123,118.5C 124.394,117.387 125.561,116.053 126.5,114.5C 127.176,115.602 127.842,116.602 128.5,117.5C 128.443,118.609 128.11,119.609 127.5,120.5C 124.482,120.665 121.482,120.498 118.5,120C 119.956,119.577 120.456,118.744 120,117.5C 118.989,118.337 117.822,118.67 116.5,118.5C 116.5,117.167 116.5,115.833 116.5,114.5C 117.5,112.833 118.833,111.5 120.5,110.5C 121.822,110.67 122.989,110.337 124,109.5C 124.471,107.754 125.138,106.087 126,104.5C 126.49,105.793 126.657,107.127 126.5,108.5 Z"/></g>
<g><path style="opacity:1" fill="#be6c10" d="M 44.5,96.5 C 45.3764,96.3691 46.0431,96.7025 46.5,97.5C 47.0276,99.3361 47.6942,101.003 48.5,102.5C 45.5507,105.788 42.5507,109.121 39.5,112.5C 36.5892,114.572 35.9225,117.238 37.5,120.5C 35.474,119.473 33.6407,118.139 32,116.5C 30.3593,118.139 28.526,119.473 26.5,120.5C 28.0775,117.238 27.4108,114.572 24.5,112.5C 21.4493,109.121 18.4493,105.788 15.5,102.5C 16.1667,101.5 16.8333,100.5 17.5,99.5C 17.942,103.847 18.7753,104.18 20,100.5C 20.876,102.758 22.0427,104.758 23.5,106.5C 25.1343,107.972 26.6343,109.638 28,111.5C 28.747,109.072 27.9137,107.406 25.5,106.5C 24.6971,105.577 24.5304,104.577 25,103.5C 27.4027,106.243 30.0693,108.576 33,110.5C 33.7065,108.919 34.5399,107.419 35.5,106C 36.4368,105.308 37.1034,105.475 37.5,106.5C 35.2918,107.918 34.4585,109.918 35,112.5C 36.6941,109.642 38.8607,107.309 41.5,105.5C 42.29,104.391 42.79,103.058 43,101.5C 43.3076,102.308 43.8076,102.975 44.5,103.5C 45.5751,101.189 45.5751,98.8555 44.5,96.5 Z"/></g>
<g><path style="opacity:1" fill="#f7e3a9" d="M 41.5,105.5 C 38.8607,107.309 36.6941,109.642 35,112.5C 34.4585,109.918 35.2918,107.918 37.5,106.5C 39.0174,106.489 40.1841,105.823 41,104.5C 41.3988,104.728 41.5654,105.062 41.5,105.5 Z"/></g>
<g><path style="opacity:1" fill="#fff4be" d="M 23.5,106.5 C 24.1667,106.5 24.8333,106.5 25.5,106.5C 27.9137,107.406 28.747,109.072 28,111.5C 26.6343,109.638 25.1343,107.972 23.5,106.5 Z"/></g>
<g><path style="opacity:1" fill="#ed9b20" d="M 176.5,102.5 C 175.167,107.5 175.167,112.5 176.5,117.5C 171.182,117.214 166.016,117.881 161,119.5C 157.904,119.904 156.071,118.571 155.5,115.5C 154.481,117.46 154.481,119.46 155.5,121.5C 155.167,121.5 154.833,121.5 154.5,121.5C 153.4,120.395 152.733,119.062 152.5,117.5C 152.414,116.504 152.748,115.671 153.5,115C 156.227,114.182 158.894,114.348 161.5,115.5C 160.106,116.687 160.273,117.354 162,117.5C 163.935,115.966 165.101,113.966 165.5,111.5C 166.158,110.602 166.824,109.602 167.5,108.5C 170.147,111.18 171.48,110.513 171.5,106.5C 170.5,106.5 169.5,106.5 168.5,106.5C 171.101,105.199 173.768,103.866 176.5,102.5 Z"/></g>
<g><path style="opacity:1" fill="#fdf4cf" d="M 170.5,112.5 C 171.5,112.5 172.5,112.5 173.5,112.5C 173.5,113.5 173.5,114.5 173.5,115.5C 171.712,115.785 170.045,115.452 168.5,114.5C 169.243,113.818 169.909,113.151 170.5,112.5 Z"/></g>
<g><path style="opacity:1" fill="#b46418" d="M 39.5,115.5 C 40.1989,118.945 41.8656,119.278 44.5,116.5C 45.7518,119.288 44.7518,120.954 41.5,121.5C 41.2504,120.078 40.417,119.078 39,118.5C 38.2599,117.251 38.4265,116.251 39.5,115.5 Z"/></g>
<g><path style="opacity:1" fill="#a35515" d="M 152.5,117.5 C 152.733,119.062 153.4,120.395 154.5,121.5C 153.85,121.804 153.183,122.137 152.5,122.5C 151.212,120.701 151.212,119.035 152.5,117.5 Z"/></g>
<g><path style="opacity:1" fill="#994702" d="M 176.5,117.5 C 176.5,118.833 176.5,120.167 176.5,121.5C 171.489,121.334 166.489,121.501 161.5,122C 159.203,125.351 157.203,125.184 155.5,121.5C 154.481,119.46 154.481,117.46 155.5,115.5C 156.071,118.571 157.904,119.904 161,119.5C 166.016,117.881 171.182,117.214 176.5,117.5 Z"/></g>
<g><path style="opacity:1" fill="#b76512" d="M 24.5,114.5 C 25.5983,115.601 25.765,116.934 25,118.5C 23.583,119.078 22.7496,120.078 22.5,121.5C 19.676,121.011 18.3426,119.344 18.5,116.5C 20.143,116.48 21.4763,117.147 22.5,118.5C 24.1112,117.68 24.7778,116.346 24.5,114.5 Z"/></g>
<g><path style="opacity:1" fill="#eaaf35" d="M 24.5,112.5 C 27.4108,114.572 28.0775,117.238 26.5,120.5C 25.4324,121.434 24.099,121.768 22.5,121.5C 22.7496,120.078 23.583,119.078 25,118.5C 25.765,116.934 25.5983,115.601 24.5,114.5C 24.5,113.833 24.5,113.167 24.5,112.5 Z"/></g>
<g><path style="opacity:1" fill="#ecae33" d="M 39.5,112.5 C 39.5,113.5 39.5,114.5 39.5,115.5C 38.4265,116.251 38.2599,117.251 39,118.5C 40.417,119.078 41.2504,120.078 41.5,121.5C 39.901,121.768 38.5676,121.434 37.5,120.5C 35.9225,117.238 36.5892,114.572 39.5,112.5 Z"/></g>
<g><path style="opacity:1" fill="#b66411" d="M 74.5,114.5 C 72.8958,115.287 72.2291,116.62 72.5,118.5C 74.9664,119.634 77.633,119.801 80.5,119C 81.7811,117.591 82.7811,116.091 83.5,114.5C 83.5,116.833 83.5,119.167 83.5,121.5C 80.2761,121.203 77.2761,121.87 74.5,123.5C 73.1861,122.687 72.0195,121.687 71,120.5C 70,121.5 69,122.5 68,123.5C 66.1353,121.327 63.9686,120.993 61.5,122.5C 60.218,121.042 60.218,119.708 61.5,118.5C 63.736,117.611 65.736,116.278 67.5,114.5C 68.1067,114.624 68.44,114.957 68.5,115.5C 66.439,116.751 66.1057,118.418 67.5,120.5C 68.1497,118.816 69.1497,117.483 70.5,116.5C 71.265,115.34 72.265,114.34 73.5,113.5C 74.1067,113.624 74.44,113.957 74.5,114.5 Z"/></g>
<g><path style="opacity:1" fill="#fff195" d="M 70.5,116.5 C 69.1497,117.483 68.1497,118.816 67.5,120.5C 66.1057,118.418 66.439,116.751 68.5,115.5C 69.9245,113.969 70.5912,114.302 70.5,116.5 Z"/></g>
<g><path style="opacity:1" fill="#c8700a" d="M 116.5,114.5 C 116.5,115.833 116.5,117.167 116.5,118.5C 117.822,118.67 118.989,118.337 120,117.5C 120.456,118.744 119.956,119.577 118.5,120C 121.482,120.498 124.482,120.665 127.5,120.5C 121.581,120.918 115.748,122.251 110,124.5C 108.56,123.852 107.06,123.519 105.5,123.5C 104.794,115.645 108.461,112.645 116.5,114.5 Z"/></g>
<g><path style="opacity:1" fill="#575958" d="M 72.5,126.5 C 50.8333,126.5 29.1667,126.5 7.5,126.5C 7.5,141.5 7.5,156.5 7.5,171.5C 7.16667,171.5 6.83333,171.5 6.5,171.5C 6.5,156.167 6.5,140.833 6.5,125.5C 28.673,125.169 50.673,125.503 72.5,126.5 Z"/></g>
<g><path style="opacity:1" fill="#242422" d="M 160.5,126.5 C 169.833,126.5 179.167,126.5 188.5,126.5C 188.5,141.5 188.5,156.5 188.5,171.5C 128.167,171.5 67.8333,171.5 7.5,171.5C 7.5,156.5 7.5,141.5 7.5,126.5C 29.1667,126.5 50.8333,126.5 72.5,126.5C 101.653,125.747 130.986,125.747 160.5,126.5 Z"/></g>
<g><path style="opacity:1" fill="#818282" d="M 160.5,126.5 C 169.986,125.506 179.652,125.173 189.5,125.5C 189.5,141.167 189.5,156.833 189.5,172.5C 128.331,172.832 67.3311,172.499 6.5,171.5C 6.83333,171.5 7.16667,171.5 7.5,171.5C 67.8333,171.5 128.167,171.5 188.5,171.5C 188.5,156.5 188.5,141.5 188.5,126.5C 179.167,126.5 169.833,126.5 160.5,126.5 Z"/></g>
<g><path style="opacity:1" fill="#50483f" d="M 176.5,127.5 C 182.99,127.141 184.824,129.808 182,135.5C 179.827,132.723 179.327,132.89 180.5,136C 178.633,136.711 177.133,136.211 176,134.5C 175.444,132.115 175.61,129.782 176.5,127.5 Z"/></g>
<g><path style="opacity:1" fill="#f3b524" d="M 14.5,133.5 C 17.8499,133.335 21.1832,133.502 24.5,134C 25.3366,135.011 25.67,136.178 25.5,137.5C 23.1667,137.5 20.8333,137.5 18.5,137.5C 18.5,138.5 18.5,139.5 18.5,140.5C 20.5,140.5 22.5,140.5 24.5,140.5C 24.2407,144.068 22.2407,145.401 18.5,144.5C 18.6633,146.857 18.4966,149.19 18,151.5C 16.9887,152.337 15.8221,152.67 14.5,152.5C 14.5,146.167 14.5,139.833 14.5,133.5 Z"/></g>
<g><path style="opacity:1" fill="#f8ac10" d="M 28.5,133.5 C 29.5,133.5 30.5,133.5 31.5,133.5C 31.5,139.167 31.5,144.833 31.5,150.5C 30.5,150.5 29.5,150.5 28.5,150.5C 28.5,144.833 28.5,139.167 28.5,133.5 Z"/></g>
<g><path style="opacity:1" fill="#e18506" d="M 48.5,133.5 C 49.8333,133.5 51.1667,133.5 52.5,133.5C 52.5,134.5 52.5,135.5 52.5,136.5C 51.1667,136.5 49.8333,136.5 48.5,136.5C 48.5,135.5 48.5,134.5 48.5,133.5 Z"/></g>
<g><path style="opacity:1" fill="#f67b09" d="M 149.5,138.5 C 152.5,138.5 155.5,138.5 158.5,138.5C 158.5,142.5 158.5,146.5 158.5,150.5C 149.079,150.788 146.079,146.788 149.5,138.5 Z"/></g>
<g><path style="opacity:1" fill="#ee8f04" d="M 48.5,138.5 C 49.8333,138.5 51.1667,138.5 52.5,138.5C 52.5,142.5 52.5,146.5 52.5,150.5C 51.1667,150.5 49.8333,150.5 48.5,150.5C 48.5,146.5 48.5,142.5 48.5,138.5 Z"/></g>
<g><path style="opacity:1" fill="#746f5c" d="M 70.5,138.5 C 70.5,142.5 70.5,146.5 70.5,150.5C 71.8333,150.5 73.1667,150.5 74.5,150.5C 73.0813,151.451 71.4147,151.784 69.5,151.5C 69.1818,146.968 69.5151,142.634 70.5,138.5 Z"/></g>
<g><path style="opacity:1" fill="#63503e" d="M 130.5,138.5 C 131.489,143.975 131.822,149.642 131.5,155.5C 129.585,155.784 127.919,155.451 126.5,154.5C 127.833,154.5 129.167,154.5 130.5,154.5C 130.5,149.167 130.5,143.833 130.5,138.5 Z"/></g>
<g><path style="opacity:1" fill="#efb74a" d="M 70.5,138.5 C 73.7766,138.216 76.9433,138.549 80,139.5C 80.4986,143.152 80.6653,146.818 80.5,150.5C 79.1667,150.5 77.8333,150.5 76.5,150.5C 75.8333,138.5 75.1667,138.5 74.5,150.5C 73.1667,150.5 71.8333,150.5 70.5,150.5C 70.5,146.5 70.5,142.5 70.5,138.5 Z"/></g>
<g><path style="opacity:1" fill="#fb7c05" d="M 144.5,138.5 C 144.5,142.5 144.5,146.5 144.5,150.5C 141.833,150.5 139.167,150.5 136.5,150.5C 135.833,150.5 135.5,150.167 135.5,149.5C 137.527,149.662 139.527,149.495 141.5,149C 140.584,148.722 139.918,148.222 139.5,147.5C 141.388,145.012 142.055,142.012 141.5,138.5C 142.5,138.5 143.5,138.5 144.5,138.5 Z"/></g>
<g><path style="opacity:1" fill="#db7605" d="M 109.5,133.5 C 111.527,133.338 113.527,133.505 115.5,134C 116.337,135.011 116.67,136.178 116.5,137.5C 114.712,137.215 113.045,137.548 111.5,138.5C 113.149,140.65 114.982,142.65 117,144.5C 117.843,148.827 116.01,150.827 111.5,150.5C 104.556,148.042 104.889,146.542 112.5,146C 109.493,143.834 107.493,141.001 106.5,137.5C 106.787,135.557 107.787,134.223 109.5,133.5 Z"/></g>
<g><path style="opacity:1" fill="#f49b17" d="M 139.5,147.5 C 139.918,148.222 140.584,148.722 141.5,149C 139.527,149.495 137.527,149.662 135.5,149.5C 132.929,146.18 132.929,142.68 135.5,139C 136.833,138.333 138.167,138.333 139.5,139C 138.541,140.707 137.875,142.541 137.5,144.5C 137.453,146.038 138.12,147.038 139.5,147.5 Z"/></g>
<g><path style="opacity:1" fill="#464339" d="M 88.5,141.5 C 89.5,141.5 90.5,141.5 91.5,141.5C 91.9746,144.082 91.3079,146.082 89.5,147.5C 87.8489,145.598 87.5155,143.598 88.5,141.5 Z"/></g>
<g><path style="opacity:1" fill="#4a4235" d="M 152.5,141.5 C 153.5,141.5 154.5,141.5 155.5,141.5C 155.799,143.604 155.466,145.604 154.5,147.5C 151.61,146.163 150.943,144.163 152.5,141.5 Z"/></g>
<g><path style="opacity:1" fill="#e9a331" d="M 163.5,133.5 C 166.85,133.335 170.183,133.502 173.5,134C 178.746,139.183 178.413,144.183 172.5,149C 169.312,150.316 165.978,150.816 162.5,150.5C 162.5,146.5 162.5,142.5 162.5,138.5C 164.167,138.5 165.833,138.5 167.5,138.5C 167.5,141.167 167.5,143.833 167.5,146.5C 171.784,145.615 173.284,142.949 172,138.5C 168.943,137.549 165.777,137.216 162.5,137.5C 162.433,136.041 162.766,134.708 163.5,133.5 Z"/></g>
<g><path style="opacity:1" fill="#ea8e09" d="M 34.5,138.5 C 37.8408,137.843 39.8408,139.176 40.5,142.5C 41.4287,141.311 41.762,139.978 41.5,138.5C 43.1992,138.34 44.8659,138.506 46.5,139C 44.6715,143.817 42.8382,148.65 41,153.5C 39.8469,155.497 38.3469,155.83 36.5,154.5C 37.304,153.059 37.9706,151.559 38.5,150C 37.0132,146.199 35.6799,142.365 34.5,138.5 Z"/></g>
<g><path style="opacity:1" fill="#e69c27" d="M 55.5,138.5 C 59.1064,138.211 62.6064,138.544 66,139.5C 66.4986,143.152 66.6653,146.818 66.5,150.5C 65.1667,150.5 63.8333,150.5 62.5,150.5C 62.5,147.5 62.5,144.5 62.5,141.5C 61.5,141.5 60.5,141.5 59.5,141.5C 59.5,144.5 59.5,147.5 59.5,150.5C 58.1667,150.5 56.8333,150.5 55.5,150.5C 55.5,146.5 55.5,142.5 55.5,138.5 Z"/></g>
<g><path style="opacity:1" fill="#f0a619" d="M 130.5,138.5 C 130.5,143.833 130.5,149.167 130.5,154.5C 129.167,154.5 127.833,154.5 126.5,154.5C 126.5,153.167 126.5,151.833 126.5,150.5C 120.501,150.998 118.334,148.331 120,142.5C 122.591,138.952 126.091,137.618 130.5,138.5 Z"/></g>
<g><path style="opacity:1" fill="#2d2b27" d="M 125.5,141.5 C 126.461,143.265 126.795,145.265 126.5,147.5C 125.5,147.5 124.5,147.5 123.5,147.5C 123.253,145.142 123.919,143.142 125.5,141.5 Z"/></g>
<g><path style="opacity:1" fill="#fcc533" d="M 90.5,138.5 C 91.8333,138.5 93.1667,138.5 94.5,138.5C 95.1128,144.271 94.4461,149.604 92.5,154.5C 91.448,154.649 90.448,154.483 89.5,154C 90.8333,153.667 92.1667,153.333 93.5,153C 91.8934,151.951 91.2267,150.451 91.5,148.5C 89.5992,148.754 88.9326,148.42 89.5,147.5C 91.3079,146.082 91.9746,144.082 91.5,141.5C 90.5,141.5 89.5,141.5 88.5,141.5C 89.1667,140.5 89.8333,139.5 90.5,138.5 Z"/></g>
<g><path style="opacity:1" fill="#694834" d="M 144.5,138.5 C 145.485,142.634 145.818,146.968 145.5,151.5C 142.287,151.81 139.287,151.477 136.5,150.5C 139.167,150.5 141.833,150.5 144.5,150.5C 144.5,146.5 144.5,142.5 144.5,138.5 Z"/></g>
<g><path style="opacity:1" fill="#e9b94c" d="M 90.5,138.5 C 89.8333,139.5 89.1667,140.5 88.5,141.5C 87.5155,143.598 87.8489,145.598 89.5,147.5C 88.9326,148.42 89.5992,148.754 91.5,148.5C 91.2267,150.451 91.8934,151.951 93.5,153C 92.1667,153.333 90.8333,153.667 89.5,154C 90.448,154.483 91.448,154.649 92.5,154.5C 90.3066,155.797 87.9732,155.797 85.5,154.5C 85.1667,153.833 84.8333,153.167 84.5,152.5C 86.4233,151.692 88.4233,151.192 90.5,151C 85.1473,149.46 82.9806,145.96 84,140.5C 85.7889,138.771 87.9556,138.104 90.5,138.5 Z"/></g>
<g><path style="opacity:1" fill="#80684b" d="M 33.5,160.5 C 33.1984,163.059 33.5318,165.393 34.5,167.5C 34.44,168.043 34.1067,168.376 33.5,168.5C 32.1997,165.691 32.1997,163.024 33.5,160.5 Z"/></g>
<g><path style="opacity:1" fill="#b99f69" d="M 91.5,159.5 C 92.7647,160.514 93.4313,162.014 93.5,164C 93.1667,165.5 92.8333,167 92.5,168.5C 91.5159,165.572 91.1826,162.572 91.5,159.5 Z"/></g>
<g><path style="opacity:1" fill="#a64f0f" d="M 124.5,159.5 C 128.326,160.48 128.326,161.313 124.5,162C 128.318,163.882 128.484,166.049 125,168.5C 124.308,167.975 123.808,167.308 123.5,166.5C 124.167,166.167 124.833,165.833 125.5,165.5C 123.454,163.719 123.12,161.719 124.5,159.5 Z"/></g>
<g><path style="opacity:1" fill="#ac8547" d="M 78.5,159.5 C 82.7503,160.558 84.0837,163.058 82.5,167C 81.2068,167.49 79.8734,167.657 78.5,167.5C 78.5,164.833 78.5,162.167 78.5,159.5 Z"/></g>
<g><path style="opacity:1" fill="#b78138" d="M 68.5,161.5 C 71.1667,161.833 73.8333,162.167 76.5,162.5C 76.6534,168.324 75.9867,168.657 74.5,163.5C 73.0753,168.73 71.9086,168.73 71,163.5C 70.7811,164.938 70.2811,166.271 69.5,167.5C 68.5344,165.604 68.2011,163.604 68.5,161.5 Z"/></g>
<g><path style="opacity:1" fill="#c29647" d="M 101.5,162.5 C 103.167,162.5 104.833,162.5 106.5,162.5C 106.291,168.261 105.458,168.594 104,163.5C 102.542,168.594 101.709,168.261 101.5,162.5 Z"/></g>
<g><path style="opacity:1" fill="#bd8030" d="M 135.5,166.5 C 135.5,165.833 135.5,165.167 135.5,164.5C 135.843,162.775 136.843,162.275 138.5,163C 137.809,164.067 137.309,165.234 137,166.5C 136.31,167.738 135.81,167.738 135.5,166.5 Z"/></g>
<g><path style="opacity:1" fill="#b17124" d="M 62.5,160.5 C 63.5,160.5 64.5,160.5 65.5,160.5C 66.167,162.819 66.3336,165.153 66,167.5C 64.6201,164.942 63.1201,164.942 61.5,167.5C 61.1667,167.167 60.8333,166.833 60.5,166.5C 61.3721,164.55 62.0388,162.55 62.5,160.5 Z"/></g>
<g><path style="opacity:1" fill="#62442c" d="M 135.5,164.5 C 135.5,165.167 135.5,165.833 135.5,166.5C 132.367,169.534 130.367,168.867 129.5,164.5C 129.453,163 130.119,162 131.5,161.5C 132.852,162.524 134.185,163.524 135.5,164.5 Z"/></g>
<g><path style="opacity:1" fill="#cd9a3e" d="M 140.5,162.5 C 141.741,164.931 142.908,164.931 144,162.5C 144.624,164.464 144.124,166.131 142.5,167.5C 140.783,166.332 140.116,164.665 140.5,162.5 Z"/></g>
<g><path style="opacity:1" fill="#cea952" d="M 151.5,161.5 C 152.376,161.369 153.043,161.702 153.5,162.5C 150.942,164.12 150.942,165.62 153.5,167C 149.062,166.867 148.395,165.034 151.5,161.5 Z"/></g>
<g><path style="opacity:1" fill="#a38b4e" d="M 156.5,166.5 C 155.06,164.58 155.393,162.913 157.5,161.5C 159.111,162.32 159.778,163.654 159.5,165.5C 158.209,165.263 157.209,165.596 156.5,166.5 Z"/></g>
<g><path style="opacity:1" fill="#b56713" d="M 33.5,160.5 C 35.0744,160.937 36.2411,161.937 37,163.5C 38.0652,159.622 38.8985,159.622 39.5,163.5C 39.523,165.067 39.023,166.4 38,167.5C 37,166.167 36,164.833 35,163.5C 34.51,164.793 34.3433,166.127 34.5,167.5C 33.5318,165.393 33.1984,163.059 33.5,160.5 Z"/></g>
<g><path style="opacity:1" fill="#ba6a19" d="M 44.5,166.5 C 42.6227,167.928 41.2894,167.428 40.5,165C 42.2065,160.639 44.2065,160.473 46.5,164.5C 46.1445,165.522 45.4778,166.189 44.5,166.5 Z"/></g>
<g><path style="opacity:1" fill="#2d2a27" d="M 44.5,166.5 C 42.5354,166.052 42.2021,165.052 43.5,163.5C 44.3857,164.325 44.719,165.325 44.5,166.5 Z"/></g>
<g><path style="opacity:1" fill="#7d522d" d="M 115.5,161.5 C 117.722,161.559 118.722,162.725 118.5,165C 117.164,169.536 115.498,169.536 113.5,165C 113.978,163.697 114.645,162.531 115.5,161.5 Z"/></g>
<g><path style="opacity:1" fill="#b67323" d="M 47.5,165.5 C 49.337,165.639 49.6704,166.306 48.5,167.5C 47.7025,167.043 47.3691,166.376 47.5,165.5 Z"/></g>
<g><path style="opacity:1" fill="#b26716" d="M 52.5,161.5 C 52.56,160.957 52.8933,160.624 53.5,160.5C 54.2922,162.465 54.9588,164.465 55.5,166.5C 54.277,167.614 52.9437,167.781 51.5,167C 53.5532,165.322 53.8866,163.489 52.5,161.5 Z"/></g>
<g><path style="opacity:1" fill="#c5a14e" d="M 85.5,162.5 C 86.7942,166.223 87.9609,166.223 89,162.5C 89.4935,164.134 89.6602,165.801 89.5,167.5C 88.1667,167.5 86.8333,167.5 85.5,167.5C 85.5,165.833 85.5,164.167 85.5,162.5 Z"/></g>
<g><path style="opacity:1" fill="#be9d51" d="M 96.5,161.5 C 97.4959,161.414 98.3292,161.748 99,162.5C 99.4935,164.134 99.6602,165.801 99.5,167.5C 98.1667,167.5 96.8333,167.5 95.5,167.5C 95.3601,165.876 96.0267,164.71 97.5,164C 95.3808,163.658 95.0474,162.825 96.5,161.5 Z"/></g>
<g><path style="opacity:1" fill="#906030" d="M 109.5,161.5 C 113.43,162.437 113.43,163.437 109.5,164.5C 112.777,165.479 113.11,166.813 110.5,168.5C 108.385,166.385 108.051,164.051 109.5,161.5 Z"/></g>
<g><path style="opacity:1" fill="#9d7a45" d="M 156.5,166.5 C 157.675,166.281 158.675,166.614 159.5,167.5C 157.948,168.798 156.948,168.465 156.5,166.5 Z"/></g>
</svg>
